<svg id="Layer_1" data-name="Layer 1" xmlns="http://www.w3.org/2000/svg" viewBox="0 0 571 164"><defs><style>.cls-1,.cls-3{fill:#1c1f2a;}.cls-2{fill:#ff5100;}.cls-3{font-size:55px;font-family:Agenda-Bold, Agenda;font-weight:700;}.cls-4{letter-spacing:-0.01em;}.cls-5{letter-spacing:-0.03em;}.cls-6{letter-spacing:1.35em;}.cls-7{letter-spacing:-0.03em;}.cls-8{letter-spacing:-0.01em;}.cls-9{letter-spacing:-0.02em;}.cls-10{fill:#ff6d2d;}</style></defs><title>Long Hand with Tagline</title><path class="cls-1" d="M345.74,109.62v-75h16.33l.56,5.57c3.08-3.86,8.05-6.67,16.05-6.67,14.95,0,24.72,11.8,24.72,27.69s-9.77,27.48-24.72,27.48c-6.56,0-12.41-2-15.56-5v26ZM362.9,61.06c0,7.07,4.8,12,11.31,12s11.7-5,11.7-12c0-7.33-5-12-11.7-12C367.7,49,362.9,54,362.9,61.06Z"/><path class="cls-1" d="M429,87.55H411.62V9.86H429Z"/><path class="cls-2" d="M480.73,25s-3,.46-11.77,5.31C464.14,33,457.57,37,448.76,42.87l-10,6.32S435,52.54,435,57s3.72,7.81,3.72,7.81L445.37,69l3.39,2.13c20.72,13.92,29.09,17,31.32,17.68a5.81,5.81,0,0,0,.65.16C491.14,89,493,79.31,493,79.31V34.69S491.14,25,480.73,25Z"/><path class="cls-1" d="M501,34.58h19.37L531.52,70l10.92-35.42h19.43L537.31,95.33c-4.25,10.54-12.74,15.39-22.51,15.39A26,26,0,0,1,503.38,108l2.37-13.68a15.24,15.24,0,0,0,6.18,1.43c4.75,0,8.77-2.7,10.32-8.11Z"/><path class="cls-1" d="M260,32.48c16.39,0,28.47,11.8,28.47,27.58S276.39,87.65,260,87.65s-28.47-11.81-28.47-27.59S243.62,32.48,260,32.48Zm0,15.39c-6.62,0-11.25,5-11.25,12.19s4.63,12.2,11.25,12.2,11.26-5,11.26-12.2S266.62,47.87,260,47.87Z"/><path class="cls-1" d="M210.48,41.81l.55-7.23h16.39v53H210V62.06c0-9.88-5.57-13.47-12.14-13.47a20.28,20.28,0,0,0-6.67,1.16l-1-15.17a20.76,20.76,0,0,1,6.45-1.1C202.76,33.48,208,36.57,210.48,41.81Z"/><path class="cls-1" d="M325.3,33.48a20.82,20.82,0,0,1,6.46,1.1l-1.05,15.17A20.34,20.34,0,0,0,324,48.59c-6.56,0-12.14,3.59-12.14,13.47V87.55H294.51v-53H310.9l.55,7.23C313.94,36.57,319.18,33.48,325.3,33.48Z"/><path class="cls-1" d="M90.59,58.08c0-5.9-4.3-8.71-8.66-8.71S73,52.18,73,58.08V87.55H55.61V58.08A8.36,8.36,0,0,0,47,49.37c-4.36,0-8.83,2.81-8.83,8.71V87.55H20.74v-53h16l.55,5.57c3.75-4.74,10.15-6.67,16.39-6.67,7.06,0,13.85,3,16.66,8.82a21.51,21.51,0,0,1,17.82-8.82c10.21,0,19.86,6.73,19.86,19.64V87.55H90.59Z"/><path class="cls-1" d="M117.19,18.3c0-5.63,3.86-9.54,9.49-9.54s9.6,3.86,9.6,9.54-4,9.49-9.6,9.49A9.07,9.07,0,0,1,117.19,18.3Zm18.26,69.25H118.07v-53h17.38Z"/><path class="cls-1" d="M176.72,33.48a20.82,20.82,0,0,1,6.46,1.1l-1.05,15.17a20.32,20.32,0,0,0-6.67-1.16c-6.57,0-12.14,3.59-12.14,13.47V87.55H145.94v-53h16.38l.56,7.23C165.36,36.57,170.6,33.48,176.72,33.48Z"/><text class="cls-3" transform="translate(18 144.16)">p<tspan class="cls-4" x="30.74" y="0">l</tspan><tspan class="cls-5" x="44.99" y="0">a</tspan><tspan x="69.02" y="0">y</tspan><tspan class="cls-6" x="95.81" y="0"> </tspan><tspan x="182.26" y="0">c</tspan><tspan class="cls-7" x="206.74" y="0">r</tspan><tspan class="cls-8" x="225" y="0">e</tspan><tspan class="cls-9" x="251.51" y="0">a</tspan><tspan class="cls-4" x="276.37" y="0">t</tspan><tspan x="296.77" y="0">e</tspan><tspan class="cls-6" x="323.72" y="0"> </tspan><tspan x="410.17" y="0">sha</tspan><tspan class="cls-7" x="486.79" y="0">r</tspan><tspan x="505.05" y="0">e</tspan></text><circle class="cls-10" cx="155" cy="132" r="4"/><circle class="cls-10" cx="390" cy="132" r="4"/></svg>