<svg xmlns="http://www.w3.org/2000/svg" viewBox="0 0 852 717"><defs><style>.cls-1{fill:#333;}.cls-2{fill:#ff5100;}.cls-3{fill:#fff;}.cls-4{fill:#eaeaea;}</style></defs><title>POD 2</title><g id="POD_2" data-name="POD 2"><path class="cls-1" d="M198.23,109.5H461.5a330,330,0,0,1,330,330v70.27A171.73,171.73,0,0,1,619.77,681.5H198.23A171.73,171.73,0,0,1,26.5,509.77V281.23A171.73,171.73,0,0,1,198.23,109.5Z" transform="translate(818 791) rotate(-180)"/><path class="cls-2" d="M14,56.77V254.35s8.24,42.77,54.33,42.77a24.55,24.55,0,0,0,2.88-.71c9.87-2.88,46.93-16.65,138.68-78.28l15-9.44,29.45-18.55s16.47-14.83,16.47-34.58S254.35,121,254.35,121L209.89,93c-39-26.21-68.1-43.74-89.44-55.48C81.39,16,68.33,14,68.33,14,22.24,14,14,56.77,14,56.77Z"/><rect class="cls-3" x="340" y="202" width="349" height="414"/><rect class="cls-4" x="349" y="266.6" width="331" height="58.8" rx="14.25"/><rect class="cls-4" x="349" y="513.6" width="331" height="58.8" rx="14.25"/><rect class="cls-4" x="349" y="389.6" width="331" height="58.8" rx="14.25"/><rect class="cls-4" x="636" y="216" width="40" height="40" rx="20"/><rect class="cls-3" x="359" y="276" width="40" height="40" rx="20"/><rect class="cls-3" x="359" y="399" width="40" height="40" rx="20"/><rect class="cls-3" x="359" y="523" width="40" height="40" rx="20"/><rect class="cls-4" x="636" y="337" width="40" height="40" rx="20"/><rect class="cls-4" x="636" y="462" width="40" height="40" rx="20"/><path class="cls-4" d="M676,606a19.84,19.84,0,0,1-2.69,10H638.69A20,20,0,1,1,676,606Z"/><path class="cls-1" d="M493,228.12v-5.51c0-.27,0-1.46,0-2.33h0l-2.63,7.84h-1.24l-2.63-7.83h0c0,.86,0,2.05,0,2.32v5.51h-1.22v-9.33h1.8l2.67,7.89h0l2.65-7.89h1.79v9.33Z"/><path class="cls-1" d="M498.78,221.13c2.17,0,3.16,1.83,3.16,3.58s-1,3.59-3.16,3.59-3.16-1.83-3.16-3.59S496.61,221.13,498.78,221.13Zm0,6.18c1.64,0,2-1.69,2-2.6s-.34-2.6-2-2.6-2,1.69-2,2.6S497.14,227.31,498.78,227.31Z"/><path class="cls-1" d="M504.54,228.12H503.4v-6.8h1.08v1.13h0a2.21,2.21,0,0,1,1.91-1.32.8.8,0,0,1,.3,0v1.18h-.43a1.73,1.73,0,0,0-1.74,1.82Z"/><path class="cls-1" d="M507.48,228.12v-9.33h1.14v3.39h0a2.29,2.29,0,0,1,2-1.05c1.81,0,2.84,1.48,2.84,3.39,0,1.63-.68,3.8-3,3.8a2.06,2.06,0,0,1-1.88-1h0v.84Zm2.92-6c-1.65,0-1.83,1.79-1.83,2.89,0,1.81,1.13,2.29,1.86,2.29,1.25,0,1.83-1.13,1.83-2.63C512.26,223.83,512.17,222.15,510.4,222.15Z"/><path class="cls-1" d="M514.82,220.09v-1.3H516v1.3Zm1.15,8h-1.15v-6.8H516Z"/><path class="cls-1" d="M526.87,230.81h-1.14v-3.4h0a2,2,0,0,1-1.8.91c-2.32,0-3-2.17-3-3.8,0-1.91,1-3.39,2.83-3.39a2.29,2.29,0,0,1,2,1.15h0v-1h1.08ZM524,222.15c-1.77,0-1.86,1.68-1.86,2.55,0,1.5.58,2.63,1.83,2.63.73,0,1.86-.48,1.86-2.29C525.78,223.94,525.6,222.15,524,222.15Z"/><path class="cls-1" d="M533,228.12v-1l0,0a2.24,2.24,0,0,1-2.16,1.21,2,2,0,0,1-2.21-2.11v-4.89h1.15v4.51c0,1.12.57,1.5,1.31,1.5,1.44,0,1.87-1.28,1.87-2.26v-3.75H534v6.8Z"/><path class="cls-1" d="M535.78,220.09v-1.3h1.14v1.3Zm1.14,8h-1.14v-6.8h1.14Z"/><path class="cls-1" d="M542.5,223.26c0-.43-.17-1.15-1.61-1.15-.35,0-1.35.12-1.35,1,0,.56.35.69,1.23.91l1.14.28c1.42.35,1.92.87,1.92,1.8,0,1.4-1.16,2.25-2.7,2.25-2.69,0-2.88-1.56-2.92-2.38h1.1c0,.53.2,1.39,1.81,1.39.82,0,1.56-.33,1.56-1.08,0-.55-.38-.73-1.35-1L540,225c-1-.24-1.57-.72-1.57-1.65,0-1.5,1.24-2.17,2.57-2.17,2.44,0,2.6,1.79,2.6,2.13Z"/><path class="cls-1" d="M548.66,221.32h1.08v1h0a2.28,2.28,0,0,1,2-1.15c1.81,0,2.84,1.48,2.84,3.39,0,1.63-.68,3.8-3,3.8a2.05,2.05,0,0,1-1.81-.91h0v3.4h-1.15Zm3,6c1.25,0,1.84-1.13,1.84-2.63,0-.87-.1-2.55-1.86-2.55s-1.84,1.79-1.84,2.89C549.75,226.85,550.88,227.33,551.61,227.33Z"/><path class="cls-1" d="M561.52,228.12h-1.15v-4.45c0-.92-.26-1.52-1.35-1.52-.93,0-1.9.55-1.9,2.27v3.7H556v-9.33h1.14v3.44h0a2.39,2.39,0,0,1,2-1.1,2.15,2.15,0,0,1,2.38,2.36Z"/><path class="cls-1" d="M563.17,223.39c.05-1.63,1.13-2.26,2.81-2.26.54,0,2.52.15,2.52,1.89v3.92c0,.28.14.4.38.4a2.93,2.93,0,0,0,.37-.05v.83a2.12,2.12,0,0,1-.62.13c-1,0-1.17-.52-1.21-1a3.09,3.09,0,0,1-2.46,1.11,2,2,0,0,1-2.13-2,2,2,0,0,1,2.07-2.13l1.88-.23c.28,0,.6-.13.6-.81s-.52-1.1-1.6-1.1a1.35,1.35,0,0,0-1.56,1.31Zm4.18,1.26c-.18.14-.46.25-1.88.43-.56.08-1.46.25-1.46,1.1a1.08,1.08,0,0,0,1.24,1.19c1.06,0,2.1-.69,2.1-1.6Z"/><path class="cls-1" d="M571.74,228.12h-1.15v-6.8h1.08v1.13h0a2.2,2.2,0,0,1,1.91-1.32.84.84,0,0,1,.3,0v1.18h-.43a1.72,1.72,0,0,0-1.74,1.82Z"/><path class="cls-1" d="M580.54,226a2.84,2.84,0,0,1-3.06,2.33c-1.91,0-3-1.45-3-3.41s1-3.78,3.26-3.78c2,0,2.93,1.56,2.93,4h-5c0,1.42.66,2.24,2,2.24a1.72,1.72,0,0,0,1.75-1.34Zm-1.1-1.81c-.06-1.05-.5-2-1.89-2a2,2,0,0,0-1.89,2Z"/><path class="cls-1" d="M583.4,222.27v4.42c0,.53.45.53.68.53h.41v.9c-.42,0-.74.09-.86.09-1.13,0-1.38-.63-1.38-1.45v-4.49h-.92v-1h.92v-1.9h1.15v1.9h1.09v1Z"/><path class="cls-1" d="M586.91,228.12h-1.15v-6.8h1.08v1.13h0a2.2,2.2,0,0,1,1.91-1.32.84.84,0,0,1,.3,0v1.18h-.43a1.72,1.72,0,0,0-1.74,1.82Z"/><path class="cls-1" d="M589.77,223.39c.05-1.63,1.13-2.26,2.8-2.26.55,0,2.53.15,2.53,1.89v3.92c0,.28.14.4.37.4a2.84,2.84,0,0,0,.38-.05v.83a2.12,2.12,0,0,1-.62.13c-1,0-1.17-.52-1.21-1a3.09,3.09,0,0,1-2.46,1.11,2,2,0,0,1-2.13-2,2,2,0,0,1,2.07-2.13l1.88-.23c.27,0,.6-.13.6-.81s-.52-1.1-1.6-1.1a1.35,1.35,0,0,0-1.56,1.31Zm4.18,1.26c-.18.14-.47.25-1.88.43-.56.08-1.46.25-1.46,1.1a1.08,1.08,0,0,0,1.24,1.19c1.06,0,2.1-.69,2.1-1.6Z"/><path class="cls-1" d="M601.82,229.12c0,.59-.06,1.73-1.74,1.73a2.77,2.77,0,0,1-.49,0v-1h.24c.67,0,.84-.06.84-.83v-7.67h1.15Zm0-9h-1.15v-1.3h1.15Z"/><path class="cls-1" d="M608,228.12v-1l0,0a2.25,2.25,0,0,1-2.16,1.21,2,2,0,0,1-2.21-2.11v-4.89h1.15v4.51c0,1.12.57,1.5,1.31,1.5,1.44,0,1.87-1.28,1.87-2.26v-3.75H609v6.8Z"/><path class="cls-1" d="M614.62,223.26c0-.43-.17-1.15-1.61-1.15-.35,0-1.35.12-1.35,1,0,.56.35.69,1.23.91l1.15.28c1.41.35,1.91.87,1.91,1.8,0,1.4-1.16,2.25-2.69,2.25-2.69,0-2.89-1.56-2.93-2.38h1.11c0,.53.19,1.39,1.8,1.39.82,0,1.56-.33,1.56-1.08,0-.55-.37-.73-1.35-1l-1.32-.32c-1-.24-1.58-.72-1.58-1.65,0-1.5,1.24-2.17,2.58-2.17,2.43,0,2.6,1.79,2.6,2.13Z"/><path class="cls-1" d="M618.66,222.27v4.42c0,.53.46.53.69.53h.41v.9c-.42,0-.74.09-.86.09-1.13,0-1.38-.63-1.38-1.45v-4.49h-.92v-1h.92v-1.9h1.14v1.9h1.1v1Z"/><path class="cls-1" d="M623.64,221.13c2.17,0,3.16,1.83,3.16,3.58s-1,3.59-3.16,3.59-3.16-1.83-3.16-3.59S621.47,221.13,623.64,221.13Zm0,6.18c1.64,0,2-1.69,2-2.6s-.34-2.6-2-2.6-2,1.69-2,2.6S622,227.31,623.64,227.31Z"/><path class="cls-1" d="M629.22,228.12h-1.35v-1.38h1.35Z"/><path class="cls-1" d="M452.33,237.12a2,2,0,0,0-2.31-1.9c-.79,0-2.13.22-2.13,1.64,0,.79.56,1,1.1,1.18l2.67.61a2.43,2.43,0,0,1,2.12,2.5c0,2.21-2.06,2.82-3.66,2.82a3.69,3.69,0,0,1-2.82-.9,2.87,2.87,0,0,1-.95-2.37h1.19c0,1.69,1.37,2.19,2.57,2.19.91,0,2.44-.24,2.44-1.57,0-1-.45-1.29-2-1.66l-1.92-.44a2.24,2.24,0,0,1-2-2.19c0-1.46.94-2.89,3.21-2.89,3.26,0,3.58,2,3.64,3Z"/><path class="cls-1" d="M459.67,243.72v-1l0,0a2.25,2.25,0,0,1-2.16,1.21,2,2,0,0,1-2.21-2.11v-4.89h1.15v4.51c0,1.12.57,1.5,1.31,1.5,1.44,0,1.87-1.28,1.87-2.26v-3.75h1.14v6.8Z"/><path class="cls-1" d="M466.32,238.86c0-.43-.17-1.15-1.61-1.15-.35,0-1.35.12-1.35,1,0,.56.35.69,1.23.91l1.15.28c1.41.35,1.91.87,1.91,1.8,0,1.4-1.16,2.25-2.69,2.25-2.7,0-2.89-1.56-2.93-2.38h1.11c0,.53.19,1.39,1.8,1.39.82,0,1.56-.33,1.56-1.08,0-.55-.37-.73-1.35-1l-1.33-.32c-.94-.24-1.57-.72-1.57-1.65,0-1.5,1.24-2.17,2.58-2.17,2.43,0,2.6,1.79,2.6,2.13Z"/><path class="cls-1" d="M468.87,236.92H470v1h0a2.32,2.32,0,0,1,2-1.15c1.81,0,2.84,1.48,2.84,3.39,0,1.62-.68,3.8-3,3.8A2.05,2.05,0,0,1,470,243h0v3.4h-1.14Zm2.95,6c1.25,0,1.83-1.13,1.83-2.63,0-.87-.09-2.55-1.86-2.55s-1.83,1.78-1.83,2.89C470,242.45,471.09,242.93,471.82,242.93Z"/><path class="cls-1" d="M482,241.59a3,3,0,0,1-1.21,1.86,2.9,2.9,0,0,1-1.85.47c-1.91,0-3-1.45-3-3.41s1-3.78,3.27-3.78c2,0,2.92,1.56,2.92,4h-5c0,1.42.67,2.24,2,2.24a1.73,1.73,0,0,0,1.76-1.34Zm-1.09-1.81c-.07-1.05-.51-2-1.9-2a2,2,0,0,0-1.89,2Z"/><path class="cls-1" d="M489,243.72h-1.14v-4.19c0-1.18-.34-1.78-1.46-1.78-.65,0-1.79.42-1.79,2.27v3.7h-1.15v-6.8h1.08v1h0a2.47,2.47,0,0,1,2.05-1.15,2.15,2.15,0,0,1,2.38,2.36Z"/><path class="cls-1" d="M496.28,243.72h-1.07v-.94h0a2,2,0,0,1-1.94,1.14c-2.31,0-3-2.18-3-3.8,0-1.91,1-3.39,2.84-3.39a2.28,2.28,0,0,1,2,1.15l0-.09v-3.4h1.14Zm-3-.79c.73,0,1.86-.48,1.86-2.29,0-1.11-.18-2.89-1.84-2.89s-1.86,1.68-1.86,2.55C491.43,241.8,492,242.93,493.27,242.93Z"/><path class="cls-1" d="M497.9,235.69v-1.3H499v1.3Zm1.14,8H497.9v-6.8H499Z"/><path class="cls-1" d="M504.62,238.86c0-.43-.17-1.15-1.62-1.15-.35,0-1.35.12-1.35,1,0,.56.35.69,1.24.91l1.14.28c1.42.35,1.91.87,1.91,1.8,0,1.4-1.15,2.25-2.69,2.25-2.69,0-2.88-1.56-2.92-2.38h1.1c0,.53.2,1.39,1.81,1.39.82,0,1.56-.33,1.56-1.08,0-.55-.38-.73-1.35-1l-1.33-.32c-.95-.24-1.57-.72-1.57-1.65,0-1.5,1.23-2.17,2.57-2.17,2.43,0,2.6,1.79,2.6,2.13Z"/><path class="cls-1" d="M511.12,238.86c0-.43-.17-1.15-1.62-1.15-.35,0-1.35.12-1.35,1,0,.56.35.69,1.24.91l1.14.28c1.42.35,1.91.87,1.91,1.8,0,1.4-1.15,2.25-2.69,2.25-2.69,0-2.88-1.56-2.92-2.38h1.1c0,.53.2,1.39,1.81,1.39.82,0,1.56-.33,1.56-1.08,0-.55-.38-.73-1.35-1l-1.33-.32c-.95-.24-1.57-.72-1.57-1.65,0-1.5,1.23-2.17,2.57-2.17,2.43,0,2.6,1.79,2.6,2.13Z"/><path class="cls-1" d="M519.53,241.59a2.84,2.84,0,0,1-3.06,2.33c-1.91,0-3-1.45-3-3.41s1-3.78,3.26-3.78c2,0,2.93,1.56,2.93,4h-5c0,1.42.67,2.24,2,2.24a1.72,1.72,0,0,0,1.75-1.34Zm-1.09-1.81c-.07-1.05-.51-2-1.9-2a2,2,0,0,0-1.89,2Z"/><path class="cls-1" d="M526,237.87v5.85h-1.14v-5.85h-.94v-1h.94v-1.17c0-1,.65-1.49,1.77-1.49l.52,0v1l-.47,0c-.49,0-.68.25-.68.8v.84h1.15v1Z"/><path class="cls-1" d="M528.24,235.69v-1.3h1.14v1.3Zm1.14,8h-1.14v-6.8h1.14Z"/><path class="cls-1" d="M536.63,243.72h-1.14v-4.19c0-1.18-.34-1.78-1.45-1.78-.66,0-1.8.42-1.8,2.27v3.7H531.1v-6.8h1.08v1h0a2.49,2.49,0,0,1,2.06-1.15,2.14,2.14,0,0,1,2.37,2.36Z"/><path class="cls-1" d="M538.35,235.69v-1.3h1.14v1.3Zm1.14,8h-1.14v-6.8h1.14Z"/><path class="cls-1" d="M541.12,243.72v-9.33h1.14v3.39h0a2.29,2.29,0,0,1,2-1.05c1.81,0,2.84,1.48,2.84,3.39,0,1.62-.68,3.8-3,3.8a2.06,2.06,0,0,1-1.88-1h0v.84Zm2.92-6c-1.65,0-1.83,1.78-1.83,2.89,0,1.81,1.13,2.29,1.86,2.29,1.25,0,1.83-1.13,1.83-2.63C545.9,239.43,545.81,237.75,544,237.75Z"/><path class="cls-1" d="M552.61,243.72v-1l0,0a2.24,2.24,0,0,1-2.15,1.21,2,2,0,0,1-2.21-2.11v-4.89h1.14v4.51c0,1.12.57,1.5,1.31,1.5,1.45,0,1.88-1.28,1.88-2.26v-3.75h1.14v6.8Z"/><path class="cls-1" d="M559.27,238.86c0-.43-.17-1.15-1.62-1.15-.35,0-1.35.12-1.35,1,0,.56.35.69,1.24.91l1.14.28c1.42.35,1.91.87,1.91,1.8,0,1.4-1.15,2.25-2.69,2.25-2.69,0-2.88-1.56-2.92-2.38h1.1c0,.53.2,1.39,1.81,1.39.82,0,1.56-.33,1.56-1.08,0-.55-.38-.73-1.35-1l-1.33-.32c-.95-.24-1.57-.72-1.57-1.65,0-1.5,1.23-2.17,2.57-2.17,2.43,0,2.6,1.79,2.6,2.13Z"/><path class="cls-1" d="M566.94,237.87v5.85h-1.15v-5.85h-.93v-1h.93v-1.17c0-1,.65-1.49,1.77-1.49l.52,0v1l-.47,0c-.49,0-.67.25-.67.8v.84h1.14v1Z"/><path class="cls-1" d="M574.52,241.59a2.84,2.84,0,0,1-3.06,2.33c-1.91,0-3-1.45-3-3.41s1-3.78,3.26-3.78c2,0,2.93,1.56,2.93,4h-5c0,1.42.66,2.24,2,2.24a1.72,1.72,0,0,0,1.75-1.34Zm-1.1-1.81c-.06-1.05-.5-2-1.89-2a2,2,0,0,0-1.89,2Z"/><path class="cls-1" d="M577.27,243.72h-1.14v-6.8h1.08v1.13h0a2.22,2.22,0,0,1,1.91-1.32.8.8,0,0,1,.3,0V238H579a1.73,1.73,0,0,0-1.74,1.82Z"/><path class="cls-1" d="M580.63,236.92h1.07v1h0a2.39,2.39,0,0,1,2-1.15,1.83,1.83,0,0,1,1.81,1.1,2.48,2.48,0,0,1,2.08-1.1,2,2,0,0,1,2.11,2.28v4.71h-1.15v-4.39c0-.94-.28-1.58-1.26-1.58a1.73,1.73,0,0,0-1.6,1.82v4.15h-1.14V239c0-.57-.22-1.26-1.07-1.26-.65,0-1.79.42-1.79,2.27v3.7h-1.14Z"/><path class="cls-1" d="M597.23,241.59a2.84,2.84,0,0,1-3.06,2.33c-1.91,0-3-1.45-3-3.41s1-3.78,3.26-3.78c2,0,2.93,1.56,2.93,4h-5c0,1.42.66,2.24,2,2.24a1.72,1.72,0,0,0,1.75-1.34Zm-1.1-1.81c-.06-1.05-.5-2-1.89-2a2,2,0,0,0-1.89,2Z"/><path class="cls-1" d="M604.22,243.72h-1.14v-4.19c0-1.18-.34-1.78-1.46-1.78-.65,0-1.79.42-1.79,2.27v3.7h-1.15v-6.8h1.08v1h0a2.45,2.45,0,0,1,2.05-1.15,2.15,2.15,0,0,1,2.38,2.36Z"/><path class="cls-1" d="M607.31,237.87v4.42c0,.53.46.53.69.53h.41v.9c-.42,0-.75.09-.86.09-1.13,0-1.38-.64-1.38-1.45v-4.49h-.92v-1h.92V235h1.14v1.9h1.1v1Z"/><path class="cls-1" d="M614,243.72v-1l0,0a2.24,2.24,0,0,1-2.16,1.21,2,2,0,0,1-2.21-2.11v-4.89h1.15v4.51c0,1.12.57,1.5,1.31,1.5,1.44,0,1.87-1.28,1.87-2.26v-3.75H615v6.8Z"/><path class="cls-1" d="M616.75,236.92h1.08v1h0a2.37,2.37,0,0,1,2-1.15,1.86,1.86,0,0,1,1.81,1.1,2.47,2.47,0,0,1,2.08-1.1,2,2,0,0,1,2.1,2.28v4.71h-1.14v-4.39c0-.94-.29-1.58-1.26-1.58a1.73,1.73,0,0,0-1.6,1.82v4.15h-1.14V239c0-.57-.23-1.26-1.07-1.26-.65,0-1.79.42-1.79,2.27v3.7h-1.15Z"/><path class="cls-1" d="M629.22,243.72h-1.35v-1.38h1.35Z"/><path d="M428.37,291.12v-5.51c0-.27,0-1.46,0-2.33h0l-2.62,7.84H424.5l-2.63-7.83h0c0,.86,0,2,0,2.32v5.51h-1.22v-9.33h1.81l2.66,7.89h0l2.65-7.89h1.8v9.33Z"/><path d="M434.15,284.13c2.17,0,3.15,1.83,3.15,3.58s-1,3.59-3.15,3.59-3.16-1.83-3.16-3.59S432,284.13,434.15,284.13Zm0,6.18c1.63,0,2-1.69,2-2.6s-.34-2.6-2-2.6-2,1.69-2,2.6S432.51,290.31,434.15,290.31Z"/><path d="M439.9,291.12h-1.14v-6.8h1.08v1.13h0a2.2,2.2,0,0,1,1.91-1.32.87.87,0,0,1,.3,0v1.18h-.43a1.73,1.73,0,0,0-1.75,1.82Z"/><path d="M442.84,291.12v-9.33H444v3.39h0a2.3,2.3,0,0,1,2-1.05c1.81,0,2.84,1.48,2.84,3.39,0,1.63-.68,3.8-3,3.8a2,2,0,0,1-1.87-1h0v.84Zm2.93-6c-1.65,0-1.84,1.79-1.84,2.89,0,1.81,1.14,2.29,1.86,2.29,1.25,0,1.84-1.13,1.84-2.63C447.63,286.83,447.54,285.15,445.77,285.15Z"/><path d="M450.19,283.09v-1.3h1.14v1.3Zm1.14,8h-1.14v-6.8h1.14Z"/><path d="M462.24,293.81h-1.15v-3.4h0a2.05,2.05,0,0,1-1.81.91c-2.31,0-3-2.17-3-3.8,0-1.91,1-3.39,2.83-3.39a2.29,2.29,0,0,1,2,1.15h0v-1h1.08Zm-2.93-8.66c-1.77,0-1.86,1.68-1.86,2.55,0,1.5.59,2.63,1.84,2.63.72,0,1.86-.48,1.86-2.29C461.15,286.94,461,285.15,459.31,285.15Z"/><path d="M468.32,291.12v-1l0,0a2.24,2.24,0,0,1-2.15,1.21,2,2,0,0,1-2.21-2.11v-4.89h1.14v4.51c0,1.12.57,1.5,1.31,1.5,1.45,0,1.88-1.28,1.88-2.26v-3.75h1.14v6.8Z"/><path d="M471.14,283.09v-1.3h1.15v1.3Zm1.15,8h-1.15v-6.8h1.15Z"/><path d="M477.86,286.26c0-.43-.17-1.15-1.61-1.15-.35,0-1.35.12-1.35,1,0,.56.35.69,1.23.91l1.15.28c1.41.35,1.91.87,1.91,1.8,0,1.4-1.16,2.25-2.69,2.25-2.69,0-2.89-1.56-2.93-2.38h1.11c0,.53.19,1.39,1.8,1.39.82,0,1.56-.33,1.56-1.08,0-.55-.37-.73-1.35-1l-1.32-.32c-.95-.24-1.58-.72-1.58-1.65,0-1.5,1.24-2.17,2.58-2.17,2.43,0,2.6,1.79,2.6,2.13Z"/><path d="M484,284.32h1.08v1h0a2.29,2.29,0,0,1,2-1.15c1.8,0,2.83,1.48,2.83,3.39,0,1.63-.67,3.8-3,3.8a2.05,2.05,0,0,1-1.81-.91h0v3.4H484Zm3,6c1.24,0,1.83-1.13,1.83-2.63,0-.87-.09-2.55-1.86-2.55s-1.83,1.79-1.83,2.89C485.12,289.85,486.25,290.33,487,290.33Z"/><path d="M496.88,291.12h-1.14v-4.45c0-.92-.26-1.52-1.36-1.52-.93,0-1.89.55-1.89,2.27v3.7h-1.15v-9.33h1.15v3.44h0a2.41,2.41,0,0,1,2-1.1,2.15,2.15,0,0,1,2.38,2.36Z"/><path d="M498.53,286.39c.05-1.63,1.13-2.26,2.81-2.26.55,0,2.52.15,2.52,1.89v3.92c0,.28.14.4.38.4a3.07,3.07,0,0,0,.38,0v.83a2.26,2.26,0,0,1-.63.13c-1,0-1.17-.52-1.21-1a3.09,3.09,0,0,1-2.45,1.11,2,2,0,0,1-2.14-2,2,2,0,0,1,2.07-2.13l1.89-.23c.27,0,.59-.13.59-.81s-.52-1.1-1.6-1.1a1.35,1.35,0,0,0-1.56,1.31Zm4.19,1.26c-.18.14-.47.25-1.89.43-.56.08-1.45.25-1.45,1.1a1.07,1.07,0,0,0,1.23,1.19c1.07,0,2.11-.69,2.11-1.6Z"/><path d="M507.1,291.12H506v-6.8H507v1.13h0a2.2,2.2,0,0,1,1.91-1.32.84.84,0,0,1,.3,0v1.18h-.43a1.72,1.72,0,0,0-1.74,1.82Z"/><path d="M515.9,289a3,3,0,0,1-1.21,1.86,2.9,2.9,0,0,1-1.85.47c-1.91,0-3-1.45-3-3.41,0-2.11,1-3.78,3.27-3.78,2,0,2.92,1.56,2.92,4h-5c0,1.42.67,2.24,2,2.24a1.73,1.73,0,0,0,1.76-1.34Zm-1.09-1.81c-.07-1.05-.51-2-1.9-2a2,2,0,0,0-1.89,2Z"/><path d="M518.76,285.27v4.42c0,.53.45.53.69.53h.4v.9c-.42,0-.74.09-.86.09-1.13,0-1.37-.63-1.37-1.45v-4.49h-.93v-.95h.93v-1.9h1.14v1.9h1.09v.95Z"/><path d="M522.27,291.12h-1.14v-6.8h1.07v1.13h0a2.21,2.21,0,0,1,1.91-1.32.84.84,0,0,1,.3,0v1.18H524a1.73,1.73,0,0,0-1.74,1.82Z"/><path d="M525.13,286.39c0-1.63,1.13-2.26,2.81-2.26.54,0,2.52.15,2.52,1.89v3.92c0,.28.14.4.38.4a2.93,2.93,0,0,0,.37,0v.83a2.12,2.12,0,0,1-.62.13c-1,0-1.17-.52-1.21-1a3.09,3.09,0,0,1-2.46,1.11,2,2,0,0,1-2.13-2,2,2,0,0,1,2.07-2.13l1.88-.23c.28,0,.6-.13.6-.81s-.52-1.1-1.6-1.1a1.35,1.35,0,0,0-1.56,1.31Zm4.19,1.26c-.19.14-.47.25-1.89.43-.56.08-1.46.25-1.46,1.1a1.08,1.08,0,0,0,1.24,1.19c1.07,0,2.11-.69,2.11-1.6Z"/><path d="M537.18,292.12c0,.59,0,1.73-1.74,1.73a2.67,2.67,0,0,1-.48,0v-1h.23c.68,0,.85-.06.85-.83v-7.67h1.14Zm0-9H536v-1.3h1.14Z"/><path d="M543.33,291.12v-1l0,0a2.24,2.24,0,0,1-2.16,1.21,2,2,0,0,1-2.21-2.11v-4.89h1.15v4.51c0,1.12.57,1.5,1.31,1.5,1.44,0,1.87-1.28,1.87-2.26v-3.75h1.15v6.8Z"/><path d="M550,286.26c0-.43-.16-1.15-1.61-1.15-.35,0-1.35.12-1.35,1,0,.56.35.69,1.24.91l1.14.28c1.42.35,1.91.87,1.91,1.8,0,1.4-1.16,2.25-2.69,2.25-2.69,0-2.89-1.56-2.93-2.38h1.11c0,.53.19,1.39,1.81,1.39.82,0,1.56-.33,1.56-1.08,0-.55-.38-.73-1.36-1l-1.32-.32c-1-.24-1.57-.72-1.57-1.65,0-1.5,1.23-2.17,2.57-2.17,2.43,0,2.6,1.79,2.6,2.13Z"/><path d="M554,285.27v4.42c0,.53.45.53.69.53h.4v.9c-.42,0-.74.09-.86.09-1.13,0-1.38-.63-1.38-1.45v-4.49H552v-.95h.92v-1.9H554v1.9h1.09v.95Z"/><path d="M559,284.13c2.17,0,3.16,1.83,3.16,3.58s-1,3.59-3.16,3.59-3.16-1.83-3.16-3.59S556.84,284.13,559,284.13Zm0,6.18c1.63,0,2-1.69,2-2.6s-.34-2.6-2-2.6-2,1.69-2,2.6S557.37,290.31,559,290.31Z"/><path d="M564.58,291.12h-1.35v-1.38h1.35Z"/><path d="M426.32,300.12a2,2,0,0,0-2.32-1.9c-.79,0-2.13.22-2.13,1.64,0,.79.56,1.05,1.11,1.18l2.66.61a2.43,2.43,0,0,1,2.12,2.5c0,2.21-2.05,2.82-3.65,2.82a3.67,3.67,0,0,1-2.82-.9,2.87,2.87,0,0,1-1-2.37h1.18c0,1.69,1.38,2.19,2.58,2.19.91,0,2.44-.24,2.44-1.57,0-1-.46-1.29-2-1.66l-1.91-.44a2.24,2.24,0,0,1-2-2.19c0-1.46,1-2.89,3.21-2.89,3.27,0,3.59,1.95,3.64,3Z"/><path d="M433.65,306.72v-1l0,0a2.26,2.26,0,0,1-2.16,1.21,2,2,0,0,1-2.21-2.11v-4.89h1.14v4.51c0,1.12.57,1.5,1.31,1.5,1.45,0,1.88-1.28,1.88-2.26v-3.75h1.14v6.8Z"/><path d="M440.31,301.86c0-.43-.17-1.15-1.62-1.15-.35,0-1.35.12-1.35,1,0,.56.35.69,1.24.91l1.14.28c1.42.35,1.91.87,1.91,1.8,0,1.4-1.15,2.25-2.69,2.25-2.69,0-2.88-1.56-2.92-2.38h1.1c0,.53.2,1.39,1.81,1.39.82,0,1.56-.33,1.56-1.08,0-.55-.38-.73-1.35-1l-1.33-.32c-.95-.24-1.57-.72-1.57-1.65,0-1.5,1.23-2.17,2.57-2.17,2.43,0,2.6,1.79,2.6,2.13Z"/><path d="M442.85,299.92h1.08v1h0a2.29,2.29,0,0,1,2-1.15c1.8,0,2.83,1.48,2.83,3.39,0,1.62-.67,3.8-3,3.8A2.05,2.05,0,0,1,444,306h0v3.4h-1.15Zm3,6c1.24,0,1.83-1.13,1.83-2.63,0-.87-.09-2.55-1.86-2.55s-1.83,1.78-1.83,2.89C444,305.45,445.08,305.93,445.81,305.93Z"/><path d="M456,304.59a3,3,0,0,1-1.21,1.86,2.94,2.94,0,0,1-1.85.47c-1.91,0-3-1.45-3-3.41s1-3.78,3.26-3.78c2,0,2.93,1.56,2.93,4h-5c0,1.42.66,2.24,2,2.24a1.72,1.72,0,0,0,1.75-1.34Zm-1.1-1.81c-.06-1-.5-2-1.89-2a2,2,0,0,0-1.89,2Z"/><path d="M462.94,306.72h-1.15v-4.19c0-1.18-.33-1.78-1.45-1.78-.65,0-1.8.42-1.8,2.27v3.7H457.4v-6.8h1.08v1h0a2.45,2.45,0,0,1,2.05-1.15,2.15,2.15,0,0,1,2.38,2.36Z"/><path d="M470.27,306.72h-1.08v-.94h0a2.06,2.06,0,0,1-1.94,1.14c-2.32,0-3-2.18-3-3.8,0-1.91,1-3.39,2.83-3.39a2.29,2.29,0,0,1,2,1.15l0-.09v-3.4h1.14Zm-3-.79c.73,0,1.86-.48,1.86-2.29,0-1.11-.18-2.89-1.83-2.89s-1.86,1.68-1.86,2.55C465.42,304.8,466,305.93,467.25,305.93Z"/><path d="M471.88,298.69v-1.3H473v1.3Zm1.15,8h-1.15v-6.8H473Z"/><path d="M478.6,301.86c0-.43-.17-1.15-1.61-1.15-.35,0-1.35.12-1.35,1,0,.56.35.69,1.23.91l1.15.28c1.41.35,1.91.87,1.91,1.8,0,1.4-1.16,2.25-2.69,2.25-2.69,0-2.89-1.56-2.93-2.38h1.11c0,.53.19,1.39,1.8,1.39.82,0,1.57-.33,1.57-1.08,0-.55-.38-.73-1.36-1l-1.32-.32c-.95-.24-1.58-.72-1.58-1.65,0-1.5,1.24-2.17,2.58-2.17,2.43,0,2.6,1.79,2.6,2.13Z"/><path d="M485.1,301.86c0-.43-.17-1.15-1.61-1.15-.35,0-1.35.12-1.35,1,0,.56.35.69,1.23.91l1.15.28c1.41.35,1.91.87,1.91,1.8,0,1.4-1.16,2.25-2.69,2.25-2.69,0-2.89-1.56-2.93-2.38h1.11c0,.53.19,1.39,1.8,1.39.82,0,1.57-.33,1.57-1.08,0-.55-.38-.73-1.36-1l-1.32-.32c-.95-.24-1.58-.72-1.58-1.65,0-1.5,1.24-2.17,2.58-2.17,2.43,0,2.6,1.79,2.6,2.13Z"/><path d="M493.51,304.59a3,3,0,0,1-1.21,1.86,2.88,2.88,0,0,1-1.84.47c-1.91,0-3-1.45-3-3.41s1-3.78,3.26-3.78c2,0,2.92,1.56,2.92,4h-5c0,1.42.66,2.24,2,2.24a1.73,1.73,0,0,0,1.76-1.34Zm-1.09-1.81c-.06-1-.5-2-1.9-2a2,2,0,0,0-1.88,2Z"/><path d="M500,300.87v5.85h-1.14v-5.85h-.94v-.95h.94v-1.17c0-1,.65-1.49,1.76-1.49l.52,0v1l-.46,0c-.5,0-.68.25-.68.8v.84h1.14v.95Z"/><path d="M502.22,298.69v-1.3h1.15v1.3Zm1.15,8h-1.15v-6.8h1.15Z"/><path d="M510.62,306.72h-1.14v-4.19c0-1.18-.34-1.78-1.46-1.78-.65,0-1.79.42-1.79,2.27v3.7h-1.15v-6.8h1.08v1h0a2.47,2.47,0,0,1,2.05-1.15,2.15,2.15,0,0,1,2.38,2.36Z"/><path d="M512.34,298.69v-1.3h1.14v1.3Zm1.14,8h-1.14v-6.8h1.14Z"/><path d="M515.11,306.72v-9.33h1.14v3.39h0a2.29,2.29,0,0,1,2-1c1.81,0,2.83,1.48,2.83,3.39,0,1.62-.67,3.8-3,3.8a2,2,0,0,1-1.87-1h0v.84Zm2.92-6c-1.65,0-1.83,1.78-1.83,2.89,0,1.81,1.13,2.29,1.86,2.29,1.24,0,1.83-1.13,1.83-2.63C519.89,302.43,519.8,300.75,518,300.75Z"/><path d="M526.6,306.72v-1l0,0a2.24,2.24,0,0,1-2.16,1.21,2,2,0,0,1-2.21-2.11v-4.89h1.15v4.51c0,1.12.57,1.5,1.31,1.5,1.44,0,1.87-1.28,1.87-2.26v-3.75h1.15v6.8Z"/><path d="M533.25,301.86c0-.43-.17-1.15-1.61-1.15-.35,0-1.35.12-1.35,1,0,.56.35.69,1.23.91l1.15.28c1.41.35,1.91.87,1.91,1.8,0,1.4-1.16,2.25-2.69,2.25-2.69,0-2.89-1.56-2.93-2.38h1.11c0,.53.19,1.39,1.81,1.39.81,0,1.56-.33,1.56-1.08,0-.55-.38-.73-1.36-1l-1.32-.32c-1-.24-1.58-.72-1.58-1.65,0-1.5,1.24-2.17,2.58-2.17,2.43,0,2.6,1.79,2.6,2.13Z"/><path d="M540.92,300.87v5.85h-1.14v-5.85h-.94v-.95h.94v-1.17c0-1,.65-1.49,1.77-1.49l.52,0v1l-.47,0c-.49,0-.68.25-.68.8v.84h1.15v.95Z"/><path d="M548.5,304.59a3,3,0,0,1-1.21,1.86,2.88,2.88,0,0,1-1.84.47c-1.91,0-3-1.45-3-3.41s1-3.78,3.26-3.78c2,0,2.92,1.56,2.92,4h-5c0,1.42.66,2.24,2,2.24a1.73,1.73,0,0,0,1.76-1.34Zm-1.09-1.81c-.06-1-.51-2-1.9-2a2,2,0,0,0-1.88,2Z"/><path d="M551.26,306.72h-1.15v-6.8h1.08v1.13h0a2.2,2.2,0,0,1,1.91-1.32.84.84,0,0,1,.3,0V301H553a1.72,1.72,0,0,0-1.74,1.82Z"/><path d="M554.61,299.92h1.08v1h0a2.37,2.37,0,0,1,2-1.15,1.86,1.86,0,0,1,1.81,1.1,2.47,2.47,0,0,1,2.08-1.1,2,2,0,0,1,2.1,2.28v4.71h-1.14v-4.39c0-.94-.29-1.58-1.26-1.58a1.73,1.73,0,0,0-1.6,1.82v4.15h-1.14V302c0-.57-.23-1.26-1.07-1.26-.65,0-1.79.42-1.79,2.27v3.7h-1.15Z"/><path d="M571.21,304.59a3,3,0,0,1-1.21,1.86,2.88,2.88,0,0,1-1.84.47c-1.91,0-3-1.45-3-3.41s1-3.78,3.26-3.78c2,0,2.92,1.56,2.92,4h-5c0,1.42.66,2.24,2,2.24a1.73,1.73,0,0,0,1.76-1.34Zm-1.09-1.81c-.06-1-.51-2-1.9-2a2,2,0,0,0-1.88,2Z"/><path d="M578.21,306.72h-1.15v-4.19c0-1.18-.34-1.78-1.45-1.78-.65,0-1.8.42-1.8,2.27v3.7h-1.14v-6.8h1.08v1h0a2.49,2.49,0,0,1,2.06-1.15,2.15,2.15,0,0,1,2.38,2.36Z"/><path d="M581.3,300.87v4.42c0,.53.45.53.69.53h.4v.9c-.41,0-.74.09-.86.09-1.13,0-1.37-.64-1.37-1.45v-4.49h-.93v-.95h.93V298h1.14v1.9h1.09v.95Z"/><path d="M587.94,306.72v-1l0,0a2.25,2.25,0,0,1-2.16,1.21,2,2,0,0,1-2.21-2.11v-4.89h1.14v4.51c0,1.12.58,1.5,1.32,1.5,1.44,0,1.87-1.28,1.87-2.26v-3.75H589v6.8Z"/><path d="M590.74,299.92h1.08v1h0a2.4,2.4,0,0,1,2.06-1.15,1.83,1.83,0,0,1,1.8,1.1,2.49,2.49,0,0,1,2.08-1.1,2,2,0,0,1,2.11,2.28v4.71h-1.14v-4.39c0-.94-.29-1.58-1.27-1.58a1.72,1.72,0,0,0-1.59,1.82v4.15h-1.15V302c0-.57-.22-1.26-1.06-1.26-.65,0-1.8.42-1.8,2.27v3.7h-1.14Z"/><path d="M603.21,306.72h-1.36v-1.38h1.36Z"/><path class="cls-1" d="M493,349.12v-5.51c0-.27,0-1.46,0-2.33h0l-2.63,7.84h-1.24l-2.63-7.83h0c0,.86,0,2,0,2.32v5.51h-1.22v-9.33h1.8l2.67,7.89h0l2.65-7.89h1.79v9.33Z"/><path class="cls-1" d="M498.78,342.13c2.17,0,3.16,1.83,3.16,3.58s-1,3.59-3.16,3.59-3.16-1.83-3.16-3.59S496.61,342.13,498.78,342.13Zm0,6.18c1.64,0,2-1.69,2-2.6s-.34-2.59-2-2.59-2,1.68-2,2.59S497.14,348.31,498.78,348.31Z"/><path class="cls-1" d="M504.54,349.12H503.4v-6.8h1.08v1.13h0a2.21,2.21,0,0,1,1.91-1.32.8.8,0,0,1,.3,0v1.18h-.43a1.73,1.73,0,0,0-1.74,1.82Z"/><path class="cls-1" d="M507.48,349.12v-9.33h1.14v3.39h0a2.29,2.29,0,0,1,2-1.05c1.81,0,2.84,1.48,2.84,3.39,0,1.62-.68,3.8-3,3.8a2.06,2.06,0,0,1-1.88-1h0v.84Zm2.92-6c-1.65,0-1.83,1.79-1.83,2.89,0,1.81,1.13,2.29,1.86,2.29,1.25,0,1.83-1.13,1.83-2.63C512.26,344.83,512.17,343.15,510.4,343.15Z"/><path class="cls-1" d="M514.82,341.09v-1.3H516v1.3Zm1.15,8h-1.15v-6.8H516Z"/><path class="cls-1" d="M526.87,351.81h-1.14v-3.4h0a2,2,0,0,1-1.8.91c-2.32,0-3-2.18-3-3.8,0-1.91,1-3.39,2.83-3.39a2.29,2.29,0,0,1,2,1.15h0v-1h1.08ZM524,343.15c-1.77,0-1.86,1.68-1.86,2.55,0,1.5.58,2.63,1.83,2.63.73,0,1.86-.48,1.86-2.29C525.78,344.94,525.6,343.15,524,343.15Z"/><path class="cls-1" d="M533,349.12v-1l0,0a2.24,2.24,0,0,1-2.16,1.21,2,2,0,0,1-2.21-2.11v-4.89h1.15v4.51c0,1.12.57,1.5,1.31,1.5,1.44,0,1.87-1.28,1.87-2.26v-3.75H534v6.8Z"/><path class="cls-1" d="M535.78,341.09v-1.3h1.14v1.3Zm1.14,8h-1.14v-6.8h1.14Z"/><path class="cls-1" d="M542.5,344.26c0-.43-.17-1.14-1.61-1.14-.35,0-1.35.11-1.35,1,0,.56.35.69,1.23.91l1.14.28c1.42.35,1.92.87,1.92,1.8,0,1.4-1.16,2.25-2.7,2.25-2.69,0-2.88-1.56-2.92-2.38h1.1c0,.53.2,1.39,1.81,1.39.82,0,1.56-.33,1.56-1.08,0-.55-.38-.73-1.35-1L540,346c-1-.24-1.57-.72-1.57-1.65,0-1.5,1.24-2.17,2.57-2.17,2.44,0,2.6,1.79,2.6,2.13Z"/><path class="cls-1" d="M548.66,342.32h1.08v1h0a2.28,2.28,0,0,1,2-1.15c1.81,0,2.84,1.48,2.84,3.39,0,1.62-.68,3.8-3,3.8a2.05,2.05,0,0,1-1.81-.91h0v3.4h-1.15Zm3,6c1.25,0,1.84-1.13,1.84-2.63,0-.87-.1-2.55-1.86-2.55s-1.84,1.79-1.84,2.89C549.75,347.85,550.88,348.33,551.61,348.33Z"/><path class="cls-1" d="M561.52,349.12h-1.15v-4.45c0-.92-.26-1.52-1.35-1.52-.93,0-1.9.55-1.9,2.27v3.7H556v-9.33h1.14v3.44h0a2.39,2.39,0,0,1,2-1.1,2.15,2.15,0,0,1,2.38,2.36Z"/><path class="cls-1" d="M563.17,344.39c.05-1.63,1.13-2.26,2.81-2.26.54,0,2.52.15,2.52,1.9v3.91c0,.28.14.4.38.4a2.93,2.93,0,0,0,.37,0v.83a2.12,2.12,0,0,1-.62.13c-1,0-1.17-.52-1.21-1a3.09,3.09,0,0,1-2.46,1.11,2,2,0,0,1-2.13-2,2,2,0,0,1,2.07-2.13l1.88-.23c.28,0,.6-.13.6-.81s-.52-1.1-1.6-1.1a1.35,1.35,0,0,0-1.56,1.31Zm4.18,1.26c-.18.14-.46.25-1.88.43-.56.08-1.46.25-1.46,1.1a1.08,1.08,0,0,0,1.24,1.19c1.06,0,2.1-.69,2.1-1.6Z"/><path class="cls-1" d="M571.74,349.12h-1.15v-6.8h1.08v1.13h0a2.2,2.2,0,0,1,1.91-1.32.84.84,0,0,1,.3,0v1.18h-.43a1.72,1.72,0,0,0-1.74,1.82Z"/><path class="cls-1" d="M580.54,347a2.84,2.84,0,0,1-3.06,2.33c-1.91,0-3-1.45-3-3.41,0-2.11,1-3.78,3.26-3.78,2,0,2.93,1.56,2.93,4h-5c0,1.42.66,2.24,2,2.24a1.72,1.72,0,0,0,1.75-1.34Zm-1.1-1.81c-.06-1.05-.5-2-1.89-2a2,2,0,0,0-1.89,2Z"/><path class="cls-1" d="M583.4,343.27v4.42c0,.53.45.53.68.53h.41v.9c-.42,0-.74.09-.86.09-1.13,0-1.38-.63-1.38-1.45v-4.49h-.92v-.95h.92v-1.9h1.15v1.9h1.09v.95Z"/><path class="cls-1" d="M586.91,349.12h-1.15v-6.8h1.08v1.13h0a2.2,2.2,0,0,1,1.91-1.32.84.84,0,0,1,.3,0v1.18h-.43a1.72,1.72,0,0,0-1.74,1.82Z"/><path class="cls-1" d="M589.77,344.39c.05-1.63,1.13-2.26,2.8-2.26.55,0,2.53.15,2.53,1.9v3.91c0,.28.14.4.37.4a2.84,2.84,0,0,0,.38,0v.83a2.12,2.12,0,0,1-.62.13c-1,0-1.17-.52-1.21-1a3.09,3.09,0,0,1-2.46,1.11,2,2,0,0,1-2.13-2,2,2,0,0,1,2.07-2.13l1.88-.23c.27,0,.6-.13.6-.81s-.52-1.1-1.6-1.1a1.35,1.35,0,0,0-1.56,1.31Zm4.18,1.26c-.18.14-.47.25-1.88.43-.56.08-1.46.25-1.46,1.1a1.08,1.08,0,0,0,1.24,1.19c1.06,0,2.1-.69,2.1-1.6Z"/><path class="cls-1" d="M601.82,350.12c0,.59-.06,1.73-1.74,1.73a2.77,2.77,0,0,1-.49,0v-1h.24c.67,0,.84-.06.84-.83v-7.67h1.15Zm0-9h-1.15v-1.3h1.15Z"/><path class="cls-1" d="M608,349.12v-1l0,0a2.25,2.25,0,0,1-2.16,1.21,2,2,0,0,1-2.21-2.11v-4.89h1.15v4.51c0,1.12.57,1.5,1.31,1.5,1.44,0,1.87-1.28,1.87-2.26v-3.75H609v6.8Z"/><path class="cls-1" d="M614.62,344.26c0-.43-.17-1.14-1.61-1.14-.35,0-1.35.11-1.35,1,0,.56.35.69,1.23.91l1.15.28c1.41.35,1.91.87,1.91,1.8,0,1.4-1.16,2.25-2.69,2.25-2.69,0-2.89-1.56-2.93-2.38h1.11c0,.53.19,1.39,1.8,1.39.82,0,1.56-.33,1.56-1.08,0-.55-.37-.73-1.35-1l-1.32-.32c-1-.24-1.58-.72-1.58-1.65,0-1.5,1.24-2.17,2.58-2.17,2.43,0,2.6,1.79,2.6,2.13Z"/><path class="cls-1" d="M618.66,343.27v4.42c0,.53.46.53.69.53h.41v.9c-.42,0-.74.09-.86.09-1.13,0-1.38-.63-1.38-1.45v-4.49h-.92v-.95h.92v-1.9h1.14v1.9h1.1v.95Z"/><path class="cls-1" d="M623.64,342.13c2.17,0,3.16,1.83,3.16,3.58s-1,3.59-3.16,3.59-3.16-1.83-3.16-3.59S621.47,342.13,623.64,342.13Zm0,6.18c1.64,0,2-1.69,2-2.6s-.34-2.59-2-2.59-2,1.68-2,2.59S622,348.31,623.64,348.31Z"/><path class="cls-1" d="M629.22,349.12h-1.35v-1.38h1.35Z"/><path class="cls-1" d="M452.33,358.12a2,2,0,0,0-2.31-1.9c-.79,0-2.13.22-2.13,1.64,0,.79.56,1.05,1.1,1.18l2.67.61a2.43,2.43,0,0,1,2.12,2.5c0,2.21-2.06,2.82-3.66,2.82a3.69,3.69,0,0,1-2.82-.9,2.87,2.87,0,0,1-.95-2.36h1.19c0,1.68,1.37,2.18,2.57,2.18.91,0,2.44-.24,2.44-1.57,0-1-.45-1.29-2-1.66l-1.92-.44a2.24,2.24,0,0,1-2-2.19c0-1.46.94-2.89,3.21-2.89,3.26,0,3.58,1.95,3.64,3Z"/><path class="cls-1" d="M459.67,364.72v-1l0,0a2.25,2.25,0,0,1-2.16,1.21,2,2,0,0,1-2.21-2.11v-4.89h1.15v4.51c0,1.12.57,1.5,1.31,1.5,1.44,0,1.87-1.28,1.87-2.26v-3.75h1.14v6.8Z"/><path class="cls-1" d="M466.32,359.86c0-.43-.17-1.15-1.61-1.15-.35,0-1.35.12-1.35,1,0,.56.35.69,1.23.91l1.15.28c1.41.35,1.91.87,1.91,1.8,0,1.4-1.16,2.25-2.69,2.25-2.7,0-2.89-1.56-2.93-2.38h1.11c0,.53.19,1.39,1.8,1.39.82,0,1.56-.33,1.56-1.08,0-.55-.37-.73-1.35-1l-1.33-.32c-.94-.24-1.57-.72-1.57-1.65,0-1.5,1.24-2.17,2.58-2.17,2.43,0,2.6,1.79,2.6,2.13Z"/><path class="cls-1" d="M468.87,357.92H470v1h0a2.32,2.32,0,0,1,2-1.15c1.81,0,2.84,1.48,2.84,3.39,0,1.62-.68,3.8-3,3.8A2.05,2.05,0,0,1,470,364h0v3.4h-1.14Zm2.95,6c1.25,0,1.83-1.13,1.83-2.63,0-.87-.09-2.55-1.86-2.55s-1.83,1.79-1.83,2.89C470,363.45,471.09,363.93,471.82,363.93Z"/><path class="cls-1" d="M482,362.59a3,3,0,0,1-1.21,1.86,2.9,2.9,0,0,1-1.85.47c-1.91,0-3-1.45-3-3.41s1-3.78,3.27-3.78c2,0,2.92,1.56,2.92,4h-5c0,1.42.67,2.24,2,2.24a1.73,1.73,0,0,0,1.76-1.34Zm-1.09-1.81c-.07-1-.51-2-1.9-2a2,2,0,0,0-1.89,2Z"/><path class="cls-1" d="M489,364.72h-1.14v-4.18c0-1.19-.34-1.79-1.46-1.79-.65,0-1.79.42-1.79,2.27v3.7h-1.15v-6.8h1.08v1h0a2.47,2.47,0,0,1,2.05-1.15,2.15,2.15,0,0,1,2.38,2.36Z"/><path class="cls-1" d="M496.28,364.72h-1.07v-.93h0a2,2,0,0,1-1.94,1.13c-2.31,0-3-2.18-3-3.8,0-1.91,1-3.39,2.84-3.39a2.28,2.28,0,0,1,2,1.15l0-.09v-3.4h1.14Zm-3-.79c.73,0,1.86-.48,1.86-2.29,0-1.1-.18-2.89-1.84-2.89s-1.86,1.68-1.86,2.55C491.43,362.8,492,363.93,493.27,363.93Z"/><path class="cls-1" d="M497.9,356.69v-1.3H499v1.3Zm1.14,8H497.9v-6.8H499Z"/><path class="cls-1" d="M504.62,359.86c0-.43-.17-1.15-1.62-1.15-.35,0-1.35.12-1.35,1,0,.56.35.69,1.24.91l1.14.28c1.42.35,1.91.87,1.91,1.8,0,1.4-1.15,2.25-2.69,2.25-2.69,0-2.88-1.56-2.92-2.38h1.1c0,.53.2,1.39,1.81,1.39.82,0,1.56-.33,1.56-1.08,0-.55-.38-.73-1.35-1l-1.33-.32c-.95-.24-1.57-.72-1.57-1.65,0-1.5,1.23-2.17,2.57-2.17,2.43,0,2.6,1.79,2.6,2.13Z"/><path class="cls-1" d="M511.12,359.86c0-.43-.17-1.15-1.62-1.15-.35,0-1.35.12-1.35,1,0,.56.35.69,1.24.91l1.14.28c1.42.35,1.91.87,1.91,1.8,0,1.4-1.15,2.25-2.69,2.25-2.69,0-2.88-1.56-2.92-2.38h1.1c0,.53.2,1.39,1.81,1.39.82,0,1.56-.33,1.56-1.08,0-.55-.38-.73-1.35-1l-1.33-.32c-.95-.24-1.57-.72-1.57-1.65,0-1.5,1.23-2.17,2.57-2.17,2.43,0,2.6,1.79,2.6,2.13Z"/><path class="cls-1" d="M519.53,362.59a3,3,0,0,1-1.21,1.86,2.92,2.92,0,0,1-1.85.47c-1.91,0-3-1.45-3-3.41s1-3.78,3.26-3.78c2,0,2.93,1.56,2.93,4h-5c0,1.42.67,2.24,2,2.24a1.72,1.72,0,0,0,1.75-1.34Zm-1.09-1.81c-.07-1-.51-2-1.9-2a2,2,0,0,0-1.89,2Z"/><path class="cls-1" d="M526,358.87v5.85h-1.14v-5.85h-.94v-.95h.94v-1.17c0-1,.65-1.49,1.77-1.49l.52,0v1l-.47,0c-.49,0-.68.25-.68.8v.84h1.15v.95Z"/><path class="cls-1" d="M528.24,356.69v-1.3h1.14v1.3Zm1.14,8h-1.14v-6.8h1.14Z"/><path class="cls-1" d="M536.63,364.72h-1.14v-4.18c0-1.19-.34-1.79-1.45-1.79-.66,0-1.8.42-1.8,2.27v3.7H531.1v-6.8h1.08v1h0a2.49,2.49,0,0,1,2.06-1.15,2.14,2.14,0,0,1,2.37,2.36Z"/><path class="cls-1" d="M538.35,356.69v-1.3h1.14v1.3Zm1.14,8h-1.14v-6.8h1.14Z"/><path class="cls-1" d="M541.12,364.72v-9.33h1.14v3.39h0a2.29,2.29,0,0,1,2-1c1.81,0,2.84,1.48,2.84,3.39,0,1.62-.68,3.8-3,3.8a2,2,0,0,1-1.88-1.05h0v.85Zm2.92-6c-1.65,0-1.83,1.79-1.83,2.89,0,1.81,1.13,2.29,1.86,2.29,1.25,0,1.83-1.13,1.83-2.63C545.9,360.43,545.81,358.75,544,358.75Z"/><path class="cls-1" d="M552.61,364.72v-1l0,0a2.24,2.24,0,0,1-2.15,1.21,2,2,0,0,1-2.21-2.11v-4.89h1.14v4.51c0,1.12.57,1.5,1.31,1.5,1.45,0,1.88-1.28,1.88-2.26v-3.75h1.14v6.8Z"/><path class="cls-1" d="M559.27,359.86c0-.43-.17-1.15-1.62-1.15-.35,0-1.35.12-1.35,1,0,.56.35.69,1.24.91l1.14.28c1.42.35,1.91.87,1.91,1.8,0,1.4-1.15,2.25-2.69,2.25-2.69,0-2.88-1.56-2.92-2.38h1.1c0,.53.2,1.39,1.81,1.39.82,0,1.56-.33,1.56-1.08,0-.55-.38-.73-1.35-1l-1.33-.32c-.95-.24-1.57-.72-1.57-1.65,0-1.5,1.23-2.17,2.57-2.17,2.43,0,2.6,1.79,2.6,2.13Z"/><path class="cls-1" d="M566.94,358.87v5.85h-1.15v-5.85h-.93v-.95h.93v-1.17c0-1,.65-1.49,1.77-1.49l.52,0v1l-.47,0c-.49,0-.67.25-.67.8v.84h1.14v.95Z"/><path class="cls-1" d="M574.52,362.59a3,3,0,0,1-1.21,1.86,2.92,2.92,0,0,1-1.85.47c-1.91,0-3-1.45-3-3.41s1-3.78,3.26-3.78c2,0,2.93,1.56,2.93,4h-5c0,1.42.66,2.24,2,2.24a1.72,1.72,0,0,0,1.75-1.34Zm-1.1-1.81c-.06-1-.5-2-1.89-2a2,2,0,0,0-1.89,2Z"/><path class="cls-1" d="M577.27,364.72h-1.14v-6.8h1.08v1.13h0a2.22,2.22,0,0,1,1.91-1.32.8.8,0,0,1,.3,0V359H579a1.73,1.73,0,0,0-1.74,1.82Z"/><path class="cls-1" d="M580.63,357.92h1.07v1h0a2.39,2.39,0,0,1,2-1.15,1.83,1.83,0,0,1,1.81,1.1,2.48,2.48,0,0,1,2.08-1.1,2,2,0,0,1,2.11,2.28v4.71h-1.15v-4.39c0-.94-.28-1.58-1.26-1.58a1.73,1.73,0,0,0-1.6,1.82v4.15h-1.14V360c0-.57-.22-1.26-1.07-1.26-.65,0-1.79.42-1.79,2.27v3.7h-1.14Z"/><path class="cls-1" d="M597.23,362.59a3,3,0,0,1-1.21,1.86,2.92,2.92,0,0,1-1.85.47c-1.91,0-3-1.45-3-3.41s1-3.78,3.26-3.78c2,0,2.93,1.56,2.93,4h-5c0,1.42.66,2.24,2,2.24a1.72,1.72,0,0,0,1.75-1.34Zm-1.1-1.81c-.06-1-.5-2-1.89-2a2,2,0,0,0-1.89,2Z"/><path class="cls-1" d="M604.22,364.72h-1.14v-4.18c0-1.19-.34-1.79-1.46-1.79-.65,0-1.79.42-1.79,2.27v3.7h-1.15v-6.8h1.08v1h0a2.45,2.45,0,0,1,2.05-1.15,2.15,2.15,0,0,1,2.38,2.36Z"/><path class="cls-1" d="M607.31,358.87v4.42c0,.53.46.53.69.53h.41v.9c-.42,0-.75.09-.86.09-1.13,0-1.38-.64-1.38-1.45v-4.49h-.92v-.95h.92V356h1.14v1.9h1.1v.95Z"/><path class="cls-1" d="M614,364.72v-1l0,0a2.24,2.24,0,0,1-2.16,1.21,2,2,0,0,1-2.21-2.11v-4.89h1.15v4.51c0,1.12.57,1.5,1.31,1.5,1.44,0,1.87-1.28,1.87-2.26v-3.75H615v6.8Z"/><path class="cls-1" d="M616.75,357.92h1.08v1h0a2.37,2.37,0,0,1,2-1.15,1.86,1.86,0,0,1,1.81,1.1,2.47,2.47,0,0,1,2.08-1.1,2,2,0,0,1,2.1,2.28v4.71h-1.14v-4.39c0-.94-.29-1.58-1.26-1.58a1.73,1.73,0,0,0-1.6,1.82v4.15h-1.14V360c0-.57-.23-1.26-1.07-1.26-.65,0-1.79.42-1.79,2.27v3.7h-1.15Z"/><path class="cls-1" d="M629.22,364.72h-1.35v-1.38h1.35Z"/><path d="M428.37,411.12v-5.51c0-.27,0-1.46,0-2.33h0l-2.62,7.84H424.5l-2.63-7.83h0c0,.86,0,2,0,2.32v5.51h-1.22v-9.33h1.81l2.66,7.89h0l2.65-7.89h1.8v9.33Z"/><path d="M434.15,404.13c2.17,0,3.15,1.83,3.15,3.58s-1,3.59-3.15,3.59-3.16-1.83-3.16-3.59S432,404.13,434.15,404.13Zm0,6.18c1.63,0,2-1.69,2-2.6s-.34-2.59-2-2.59-2,1.68-2,2.59S432.51,410.31,434.15,410.31Z"/><path d="M439.9,411.12h-1.14v-6.8h1.08v1.13h0a2.2,2.2,0,0,1,1.91-1.32.87.87,0,0,1,.3,0v1.18h-.43a1.73,1.73,0,0,0-1.75,1.82Z"/><path d="M442.84,411.12v-9.33H444v3.39h0a2.3,2.3,0,0,1,2-1.05c1.81,0,2.84,1.48,2.84,3.39,0,1.62-.68,3.8-3,3.8a2,2,0,0,1-1.87-1h0v.84Zm2.93-6c-1.65,0-1.84,1.79-1.84,2.89,0,1.81,1.14,2.29,1.86,2.29,1.25,0,1.84-1.13,1.84-2.63C447.63,406.83,447.54,405.15,445.77,405.15Z"/><path d="M450.19,403.09v-1.3h1.14v1.3Zm1.14,8h-1.14v-6.8h1.14Z"/><path d="M462.24,413.81h-1.15v-3.4h0a2.05,2.05,0,0,1-1.81.91c-2.31,0-3-2.18-3-3.8,0-1.91,1-3.39,2.83-3.39a2.29,2.29,0,0,1,2,1.15h0v-1h1.08Zm-2.93-8.66c-1.77,0-1.86,1.68-1.86,2.55,0,1.5.59,2.63,1.84,2.63.72,0,1.86-.48,1.86-2.29C461.15,406.94,461,405.15,459.31,405.15Z"/><path d="M468.32,411.12v-1l0,0a2.24,2.24,0,0,1-2.15,1.21,2,2,0,0,1-2.21-2.11v-4.89h1.14v4.51c0,1.12.57,1.5,1.31,1.5,1.45,0,1.88-1.28,1.88-2.26v-3.75h1.14v6.8Z"/><path d="M471.14,403.09v-1.3h1.15v1.3Zm1.15,8h-1.15v-6.8h1.15Z"/><path d="M477.86,406.26c0-.43-.17-1.14-1.61-1.14-.35,0-1.35.11-1.35,1,0,.56.35.69,1.23.91l1.15.28c1.41.35,1.91.87,1.91,1.8,0,1.4-1.16,2.25-2.69,2.25-2.69,0-2.89-1.56-2.93-2.38h1.11c0,.53.19,1.39,1.8,1.39.82,0,1.56-.33,1.56-1.08,0-.55-.37-.73-1.35-1l-1.32-.32c-.95-.24-1.58-.72-1.58-1.65,0-1.5,1.24-2.17,2.58-2.17,2.43,0,2.6,1.79,2.6,2.13Z"/><path d="M484,404.32h1.08v1h0a2.29,2.29,0,0,1,2-1.15c1.8,0,2.83,1.48,2.83,3.39,0,1.62-.67,3.8-3,3.8a2.05,2.05,0,0,1-1.81-.91h0v3.4H484Zm3,6c1.24,0,1.83-1.13,1.83-2.63,0-.87-.09-2.55-1.86-2.55s-1.83,1.79-1.83,2.89C485.12,409.85,486.25,410.33,487,410.33Z"/><path d="M496.88,411.12h-1.14v-4.45c0-.92-.26-1.52-1.36-1.52-.93,0-1.89.55-1.89,2.27v3.7h-1.15v-9.33h1.15v3.44h0a2.41,2.41,0,0,1,2-1.1,2.15,2.15,0,0,1,2.38,2.36Z"/><path d="M498.53,406.39c.05-1.63,1.13-2.26,2.81-2.26.55,0,2.52.15,2.52,1.9v3.91c0,.28.14.4.38.4a3.07,3.07,0,0,0,.38,0v.83a2.26,2.26,0,0,1-.63.13c-1,0-1.17-.52-1.21-1a3.09,3.09,0,0,1-2.45,1.11,2,2,0,0,1-2.14-2,2,2,0,0,1,2.07-2.13l1.89-.23c.27,0,.59-.13.59-.81s-.52-1.1-1.6-1.1a1.35,1.35,0,0,0-1.56,1.31Zm4.19,1.26c-.18.14-.47.25-1.89.43-.56.08-1.45.25-1.45,1.1a1.07,1.07,0,0,0,1.23,1.19c1.07,0,2.11-.69,2.11-1.6Z"/><path d="M507.1,411.12H506v-6.8H507v1.13h0a2.2,2.2,0,0,1,1.91-1.32.84.84,0,0,1,.3,0v1.18h-.43a1.72,1.72,0,0,0-1.74,1.82Z"/><path d="M515.9,409a3,3,0,0,1-1.21,1.86,2.9,2.9,0,0,1-1.85.47c-1.91,0-3-1.45-3-3.41,0-2.11,1-3.78,3.27-3.78,2,0,2.92,1.56,2.92,4h-5c0,1.42.67,2.24,2,2.24a1.73,1.73,0,0,0,1.76-1.34Zm-1.09-1.81c-.07-1.05-.51-2-1.9-2a2,2,0,0,0-1.89,2Z"/><path d="M518.76,405.27v4.42c0,.53.45.53.69.53h.4v.9c-.42,0-.74.09-.86.09-1.13,0-1.37-.63-1.37-1.45v-4.49h-.93v-.95h.93v-1.9h1.14v1.9h1.09v.95Z"/><path d="M522.27,411.12h-1.14v-6.8h1.07v1.13h0a2.21,2.21,0,0,1,1.91-1.32.84.84,0,0,1,.3,0v1.18H524a1.73,1.73,0,0,0-1.74,1.82Z"/><path d="M525.13,406.39c0-1.63,1.13-2.26,2.81-2.26.54,0,2.52.15,2.52,1.9v3.91c0,.28.14.4.38.4a2.93,2.93,0,0,0,.37,0v.83a2.12,2.12,0,0,1-.62.13c-1,0-1.17-.52-1.21-1a3.09,3.09,0,0,1-2.46,1.11,2,2,0,0,1-2.13-2,2,2,0,0,1,2.07-2.13l1.88-.23c.28,0,.6-.13.6-.81s-.52-1.1-1.6-1.1a1.35,1.35,0,0,0-1.56,1.31Zm4.19,1.26c-.19.14-.47.25-1.89.43-.56.08-1.46.25-1.46,1.1a1.08,1.08,0,0,0,1.24,1.19c1.07,0,2.11-.69,2.11-1.6Z"/><path d="M537.18,412.12c0,.59,0,1.73-1.74,1.73a2.67,2.67,0,0,1-.48,0v-1h.23c.68,0,.85-.06.85-.83v-7.67h1.14Zm0-9H536v-1.3h1.14Z"/><path d="M543.33,411.12v-1l0,0a2.24,2.24,0,0,1-2.16,1.21,2,2,0,0,1-2.21-2.11v-4.89h1.15v4.51c0,1.12.57,1.5,1.31,1.5,1.44,0,1.87-1.28,1.87-2.26v-3.75h1.15v6.8Z"/><path d="M550,406.26c0-.43-.16-1.14-1.61-1.14-.35,0-1.35.11-1.35,1,0,.56.35.69,1.24.91l1.14.28c1.42.35,1.91.87,1.91,1.8,0,1.4-1.16,2.25-2.69,2.25-2.69,0-2.89-1.56-2.93-2.38h1.11c0,.53.19,1.39,1.81,1.39.82,0,1.56-.33,1.56-1.08,0-.55-.38-.73-1.36-1l-1.32-.32c-1-.24-1.57-.72-1.57-1.65,0-1.5,1.23-2.17,2.57-2.17,2.43,0,2.6,1.79,2.6,2.13Z"/><path d="M554,405.27v4.42c0,.53.45.53.69.53h.4v.9c-.42,0-.74.09-.86.09-1.13,0-1.38-.63-1.38-1.45v-4.49H552v-.95h.92v-1.9H554v1.9h1.09v.95Z"/><path d="M559,404.13c2.17,0,3.16,1.83,3.16,3.58s-1,3.59-3.16,3.59-3.16-1.83-3.16-3.59S556.84,404.13,559,404.13Zm0,6.18c1.63,0,2-1.69,2-2.6s-.34-2.59-2-2.59-2,1.68-2,2.59S557.37,410.31,559,410.31Z"/><path d="M564.58,411.12h-1.35v-1.38h1.35Z"/><path d="M426.32,420.12a2,2,0,0,0-2.32-1.9c-.79,0-2.13.22-2.13,1.64,0,.79.56,1.05,1.11,1.18l2.66.61a2.43,2.43,0,0,1,2.12,2.5c0,2.21-2.05,2.82-3.65,2.82a3.67,3.67,0,0,1-2.82-.9,2.87,2.87,0,0,1-1-2.36h1.18c0,1.68,1.38,2.18,2.58,2.18.91,0,2.44-.24,2.44-1.57,0-1-.46-1.29-2-1.66l-1.91-.44a2.24,2.24,0,0,1-2-2.19c0-1.46,1-2.89,3.21-2.89,3.27,0,3.59,1.95,3.64,3Z"/><path d="M433.65,426.72v-1l0,0a2.26,2.26,0,0,1-2.16,1.21,2,2,0,0,1-2.21-2.11v-4.89h1.14v4.51c0,1.12.57,1.5,1.31,1.5,1.45,0,1.88-1.28,1.88-2.26v-3.75h1.14v6.8Z"/><path d="M440.31,421.86c0-.43-.17-1.15-1.62-1.15-.35,0-1.35.12-1.35,1,0,.56.35.69,1.24.91l1.14.28c1.42.35,1.91.87,1.91,1.8,0,1.4-1.15,2.25-2.69,2.25-2.69,0-2.88-1.56-2.92-2.38h1.1c0,.53.2,1.39,1.81,1.39.82,0,1.56-.33,1.56-1.08,0-.55-.38-.73-1.35-1l-1.33-.32c-.95-.24-1.57-.72-1.57-1.65,0-1.5,1.23-2.17,2.57-2.17,2.43,0,2.6,1.79,2.6,2.13Z"/><path d="M442.85,419.92h1.08v1h0a2.29,2.29,0,0,1,2-1.15c1.8,0,2.83,1.48,2.83,3.39,0,1.62-.67,3.8-3,3.8A2.05,2.05,0,0,1,444,426h0v3.4h-1.15Zm3,6c1.24,0,1.83-1.13,1.83-2.63,0-.87-.09-2.55-1.86-2.55s-1.83,1.79-1.83,2.89C444,425.45,445.08,425.93,445.81,425.93Z"/><path d="M456,424.59a3,3,0,0,1-1.21,1.86,2.94,2.94,0,0,1-1.85.47c-1.91,0-3-1.45-3-3.41s1-3.78,3.26-3.78c2,0,2.93,1.56,2.93,4h-5c0,1.42.66,2.24,2,2.24a1.72,1.72,0,0,0,1.75-1.34Zm-1.1-1.81c-.06-1-.5-2-1.89-2a2,2,0,0,0-1.89,2Z"/><path d="M462.94,426.72h-1.15v-4.18c0-1.19-.33-1.79-1.45-1.79-.65,0-1.8.42-1.8,2.27v3.7H457.4v-6.8h1.08v1h0a2.45,2.45,0,0,1,2.05-1.15,2.15,2.15,0,0,1,2.38,2.36Z"/><path d="M470.27,426.72h-1.08v-.93h0a2.06,2.06,0,0,1-1.94,1.13c-2.32,0-3-2.18-3-3.8,0-1.91,1-3.39,2.83-3.39a2.29,2.29,0,0,1,2,1.15l0-.09v-3.4h1.14Zm-3-.79c.73,0,1.86-.48,1.86-2.29,0-1.1-.18-2.89-1.83-2.89s-1.86,1.68-1.86,2.55C465.42,424.8,466,425.93,467.25,425.93Z"/><path d="M471.88,418.69v-1.3H473v1.3Zm1.15,8h-1.15v-6.8H473Z"/><path d="M478.6,421.86c0-.43-.17-1.15-1.61-1.15-.35,0-1.35.12-1.35,1,0,.56.35.69,1.23.91l1.15.28c1.41.35,1.91.87,1.91,1.8,0,1.4-1.16,2.25-2.69,2.25-2.69,0-2.89-1.56-2.93-2.38h1.11c0,.53.19,1.39,1.8,1.39.82,0,1.57-.33,1.57-1.08,0-.55-.38-.73-1.36-1l-1.32-.32c-.95-.24-1.58-.72-1.58-1.65,0-1.5,1.24-2.17,2.58-2.17,2.43,0,2.6,1.79,2.6,2.13Z"/><path d="M485.1,421.86c0-.43-.17-1.15-1.61-1.15-.35,0-1.35.12-1.35,1,0,.56.35.69,1.23.91l1.15.28c1.41.35,1.91.87,1.91,1.8,0,1.4-1.16,2.25-2.69,2.25-2.69,0-2.89-1.56-2.93-2.38h1.11c0,.53.19,1.39,1.8,1.39.82,0,1.57-.33,1.57-1.08,0-.55-.38-.73-1.36-1l-1.32-.32c-.95-.24-1.58-.72-1.58-1.65,0-1.5,1.24-2.17,2.58-2.17,2.43,0,2.6,1.79,2.6,2.13Z"/><path d="M493.51,424.59a3,3,0,0,1-1.21,1.86,2.88,2.88,0,0,1-1.84.47c-1.91,0-3-1.45-3-3.41s1-3.78,3.26-3.78c2,0,2.92,1.56,2.92,4h-5c0,1.42.66,2.24,2,2.24a1.73,1.73,0,0,0,1.76-1.34Zm-1.09-1.81c-.06-1-.5-2-1.9-2a2,2,0,0,0-1.88,2Z"/><path d="M500,420.87v5.85h-1.14v-5.85h-.94v-.95h.94v-1.17c0-1,.65-1.49,1.76-1.49l.52,0v1l-.46,0c-.5,0-.68.25-.68.8v.84h1.14v.95Z"/><path d="M502.22,418.69v-1.3h1.15v1.3Zm1.15,8h-1.15v-6.8h1.15Z"/><path d="M510.62,426.72h-1.14v-4.18c0-1.19-.34-1.79-1.46-1.79-.65,0-1.79.42-1.79,2.27v3.7h-1.15v-6.8h1.08v1h0a2.47,2.47,0,0,1,2.05-1.15,2.15,2.15,0,0,1,2.38,2.36Z"/><path d="M512.34,418.69v-1.3h1.14v1.3Zm1.14,8h-1.14v-6.8h1.14Z"/><path d="M515.11,426.72v-9.33h1.14v3.39h0a2.29,2.29,0,0,1,2-1c1.81,0,2.83,1.48,2.83,3.39,0,1.62-.67,3.8-3,3.8a2,2,0,0,1-1.87-1.05h0v.85Zm2.92-6c-1.65,0-1.83,1.79-1.83,2.89,0,1.81,1.13,2.29,1.86,2.29,1.24,0,1.83-1.13,1.83-2.63C519.89,422.43,519.8,420.75,518,420.75Z"/><path d="M526.6,426.72v-1l0,0a2.24,2.24,0,0,1-2.16,1.21,2,2,0,0,1-2.21-2.11v-4.89h1.15v4.51c0,1.12.57,1.5,1.31,1.5,1.44,0,1.87-1.28,1.87-2.26v-3.75h1.15v6.8Z"/><path d="M533.25,421.86c0-.43-.17-1.15-1.61-1.15-.35,0-1.35.12-1.35,1,0,.56.35.69,1.23.91l1.15.28c1.41.35,1.91.87,1.91,1.8,0,1.4-1.16,2.25-2.69,2.25-2.69,0-2.89-1.56-2.93-2.38h1.11c0,.53.19,1.39,1.81,1.39.81,0,1.56-.33,1.56-1.08,0-.55-.38-.73-1.36-1l-1.32-.32c-1-.24-1.58-.72-1.58-1.65,0-1.5,1.24-2.17,2.58-2.17,2.43,0,2.6,1.79,2.6,2.13Z"/><path d="M540.92,420.87v5.85h-1.14v-5.85h-.94v-.95h.94v-1.17c0-1,.65-1.49,1.77-1.49l.52,0v1l-.47,0c-.49,0-.68.25-.68.8v.84h1.15v.95Z"/><path d="M548.5,424.59a3,3,0,0,1-1.21,1.86,2.88,2.88,0,0,1-1.84.47c-1.91,0-3-1.45-3-3.41s1-3.78,3.26-3.78c2,0,2.92,1.56,2.92,4h-5c0,1.42.66,2.24,2,2.24a1.73,1.73,0,0,0,1.76-1.34Zm-1.09-1.81c-.06-1-.51-2-1.9-2a2,2,0,0,0-1.88,2Z"/><path d="M551.26,426.72h-1.15v-6.8h1.08v1.13h0a2.2,2.2,0,0,1,1.91-1.32.84.84,0,0,1,.3,0V421H553a1.72,1.72,0,0,0-1.74,1.82Z"/><path d="M554.61,419.92h1.08v1h0a2.37,2.37,0,0,1,2-1.15,1.86,1.86,0,0,1,1.81,1.1,2.47,2.47,0,0,1,2.08-1.1,2,2,0,0,1,2.1,2.28v4.71h-1.14v-4.39c0-.94-.29-1.58-1.26-1.58a1.73,1.73,0,0,0-1.6,1.82v4.15h-1.14V422c0-.57-.23-1.26-1.07-1.26-.65,0-1.79.42-1.79,2.27v3.7h-1.15Z"/><path d="M571.21,424.59a3,3,0,0,1-1.21,1.86,2.88,2.88,0,0,1-1.84.47c-1.91,0-3-1.45-3-3.41s1-3.78,3.26-3.78c2,0,2.92,1.56,2.92,4h-5c0,1.42.66,2.24,2,2.24a1.73,1.73,0,0,0,1.76-1.34Zm-1.09-1.81c-.06-1-.51-2-1.9-2a2,2,0,0,0-1.88,2Z"/><path d="M578.21,426.72h-1.15v-4.18c0-1.19-.34-1.79-1.45-1.79-.65,0-1.8.42-1.8,2.27v3.7h-1.14v-6.8h1.08v1h0a2.49,2.49,0,0,1,2.06-1.15,2.15,2.15,0,0,1,2.38,2.36Z"/><path d="M581.3,420.87v4.42c0,.53.45.53.69.53h.4v.9c-.41,0-.74.09-.86.09-1.13,0-1.37-.64-1.37-1.45v-4.49h-.93v-.95h.93V418h1.14v1.9h1.09v.95Z"/><path d="M587.94,426.72v-1l0,0a2.25,2.25,0,0,1-2.16,1.21,2,2,0,0,1-2.21-2.11v-4.89h1.14v4.51c0,1.12.58,1.5,1.32,1.5,1.44,0,1.87-1.28,1.87-2.26v-3.75H589v6.8Z"/><path d="M590.74,419.92h1.08v1h0a2.4,2.4,0,0,1,2.06-1.15,1.83,1.83,0,0,1,1.8,1.1,2.49,2.49,0,0,1,2.08-1.1,2,2,0,0,1,2.11,2.28v4.71h-1.14v-4.39c0-.94-.29-1.58-1.27-1.58a1.72,1.72,0,0,0-1.59,1.82v4.15h-1.15V422c0-.57-.22-1.26-1.06-1.26-.65,0-1.8.42-1.8,2.27v3.7h-1.14Z"/><path d="M603.21,426.72h-1.36v-1.38h1.36Z"/><path class="cls-1" d="M493,474.12v-5.51c0-.27,0-1.46,0-2.33h0l-2.63,7.84h-1.24l-2.63-7.83h0c0,.86,0,2,0,2.32v5.51h-1.22v-9.33h1.8l2.67,7.89h0l2.65-7.89h1.79v9.33Z"/><path class="cls-1" d="M498.78,467.13c2.17,0,3.16,1.83,3.16,3.58s-1,3.59-3.16,3.59-3.16-1.83-3.16-3.59S496.61,467.13,498.78,467.13Zm0,6.18c1.64,0,2-1.69,2-2.6s-.34-2.59-2-2.59-2,1.68-2,2.59S497.14,473.31,498.78,473.31Z"/><path class="cls-1" d="M504.54,474.12H503.4v-6.8h1.08v1.13h0a2.21,2.21,0,0,1,1.91-1.32.8.8,0,0,1,.3,0v1.18h-.43a1.73,1.73,0,0,0-1.74,1.82Z"/><path class="cls-1" d="M507.48,474.12v-9.33h1.14v3.39h0a2.29,2.29,0,0,1,2-1.05c1.81,0,2.84,1.48,2.84,3.39,0,1.62-.68,3.8-3,3.8a2.06,2.06,0,0,1-1.88-1h0v.84Zm2.92-6c-1.65,0-1.83,1.79-1.83,2.89,0,1.81,1.13,2.29,1.86,2.29,1.25,0,1.83-1.13,1.83-2.63C512.26,469.83,512.17,468.15,510.4,468.15Z"/><path class="cls-1" d="M514.82,466.09v-1.3H516v1.3Zm1.15,8h-1.15v-6.8H516Z"/><path class="cls-1" d="M526.87,476.81h-1.14v-3.4h0a2,2,0,0,1-1.8.91c-2.32,0-3-2.18-3-3.8,0-1.91,1-3.39,2.83-3.39a2.29,2.29,0,0,1,2,1.15h0v-1h1.08ZM524,468.15c-1.77,0-1.86,1.68-1.86,2.55,0,1.5.58,2.63,1.83,2.63.73,0,1.86-.48,1.86-2.29C525.78,469.94,525.6,468.15,524,468.15Z"/><path class="cls-1" d="M533,474.12v-1l0,0a2.24,2.24,0,0,1-2.16,1.21,2,2,0,0,1-2.21-2.11v-4.89h1.15v4.51c0,1.12.57,1.5,1.31,1.5,1.44,0,1.87-1.28,1.87-2.26v-3.75H534v6.8Z"/><path class="cls-1" d="M535.78,466.09v-1.3h1.14v1.3Zm1.14,8h-1.14v-6.8h1.14Z"/><path class="cls-1" d="M542.5,469.26c0-.43-.17-1.14-1.61-1.14-.35,0-1.35.11-1.35,1,0,.56.35.69,1.23.91l1.14.28c1.42.35,1.92.87,1.92,1.8,0,1.4-1.16,2.25-2.7,2.25-2.69,0-2.88-1.56-2.92-2.38h1.1c0,.53.2,1.39,1.81,1.39.82,0,1.56-.33,1.56-1.08,0-.55-.38-.73-1.35-1L540,471c-1-.24-1.57-.72-1.57-1.65,0-1.5,1.24-2.17,2.57-2.17,2.44,0,2.6,1.79,2.6,2.13Z"/><path class="cls-1" d="M548.66,467.32h1.08v1h0a2.28,2.28,0,0,1,2-1.15c1.81,0,2.84,1.48,2.84,3.39,0,1.62-.68,3.8-3,3.8a2.05,2.05,0,0,1-1.81-.91h0v3.4h-1.15Zm3,6c1.25,0,1.84-1.13,1.84-2.63,0-.87-.1-2.55-1.86-2.55s-1.84,1.79-1.84,2.89C549.75,472.85,550.88,473.33,551.61,473.33Z"/><path class="cls-1" d="M561.52,474.12h-1.15v-4.45c0-.92-.26-1.52-1.35-1.52-.93,0-1.9.55-1.9,2.27v3.7H556v-9.33h1.14v3.44h0a2.39,2.39,0,0,1,2-1.1,2.15,2.15,0,0,1,2.38,2.36Z"/><path class="cls-1" d="M563.17,469.39c.05-1.63,1.13-2.26,2.81-2.26.54,0,2.52.15,2.52,1.9v3.91c0,.28.14.4.38.4a2.93,2.93,0,0,0,.37,0v.83a2.12,2.12,0,0,1-.62.13c-1,0-1.17-.52-1.21-1a3.09,3.09,0,0,1-2.46,1.11,2,2,0,0,1-2.13-2,2,2,0,0,1,2.07-2.13l1.88-.23c.28,0,.6-.13.6-.81s-.52-1.1-1.6-1.1a1.35,1.35,0,0,0-1.56,1.31Zm4.18,1.26c-.18.14-.46.25-1.88.43-.56.08-1.46.25-1.46,1.1a1.08,1.08,0,0,0,1.24,1.19c1.06,0,2.1-.69,2.1-1.6Z"/><path class="cls-1" d="M571.74,474.12h-1.15v-6.8h1.08v1.13h0a2.2,2.2,0,0,1,1.91-1.32.84.84,0,0,1,.3,0v1.18h-.43a1.72,1.72,0,0,0-1.74,1.82Z"/><path class="cls-1" d="M580.54,472a2.84,2.84,0,0,1-3.06,2.33c-1.91,0-3-1.45-3-3.41,0-2.11,1-3.78,3.26-3.78,2,0,2.93,1.56,2.93,4h-5c0,1.42.66,2.24,2,2.24a1.72,1.72,0,0,0,1.75-1.34Zm-1.1-1.81c-.06-1.05-.5-2-1.89-2a2,2,0,0,0-1.89,2Z"/><path class="cls-1" d="M583.4,468.27v4.42c0,.53.45.53.68.53h.41v.9c-.42,0-.74.09-.86.09-1.13,0-1.38-.63-1.38-1.45v-4.49h-.92v-.95h.92v-1.9h1.15v1.9h1.09v.95Z"/><path class="cls-1" d="M586.91,474.12h-1.15v-6.8h1.08v1.13h0a2.2,2.2,0,0,1,1.91-1.32.84.84,0,0,1,.3,0v1.18h-.43a1.72,1.72,0,0,0-1.74,1.82Z"/><path class="cls-1" d="M589.77,469.39c.05-1.63,1.13-2.26,2.8-2.26.55,0,2.53.15,2.53,1.9v3.91c0,.28.14.4.37.4a2.84,2.84,0,0,0,.38,0v.83a2.12,2.12,0,0,1-.62.13c-1,0-1.17-.52-1.21-1a3.09,3.09,0,0,1-2.46,1.11,2,2,0,0,1-2.13-2,2,2,0,0,1,2.07-2.13l1.88-.23c.27,0,.6-.13.6-.81s-.52-1.1-1.6-1.1a1.35,1.35,0,0,0-1.56,1.31Zm4.18,1.26c-.18.14-.47.25-1.88.43-.56.08-1.46.25-1.46,1.1a1.08,1.08,0,0,0,1.24,1.19c1.06,0,2.1-.69,2.1-1.6Z"/><path class="cls-1" d="M601.82,475.12c0,.59-.06,1.73-1.74,1.73a2.77,2.77,0,0,1-.49,0v-1h.24c.67,0,.84-.06.84-.83v-7.67h1.15Zm0-9h-1.15v-1.3h1.15Z"/><path class="cls-1" d="M608,474.12v-1l0,0a2.25,2.25,0,0,1-2.16,1.21,2,2,0,0,1-2.21-2.11v-4.89h1.15v4.51c0,1.12.57,1.5,1.31,1.5,1.44,0,1.87-1.28,1.87-2.26v-3.75H609v6.8Z"/><path class="cls-1" d="M614.62,469.26c0-.43-.17-1.14-1.61-1.14-.35,0-1.35.11-1.35,1,0,.56.35.69,1.23.91l1.15.28c1.41.35,1.91.87,1.91,1.8,0,1.4-1.16,2.25-2.69,2.25-2.69,0-2.89-1.56-2.93-2.38h1.11c0,.53.19,1.39,1.8,1.39.82,0,1.56-.33,1.56-1.08,0-.55-.37-.73-1.35-1l-1.32-.32c-1-.24-1.58-.72-1.58-1.65,0-1.5,1.24-2.17,2.58-2.17,2.43,0,2.6,1.79,2.6,2.13Z"/><path class="cls-1" d="M618.66,468.27v4.42c0,.53.46.53.69.53h.41v.9c-.42,0-.74.09-.86.09-1.13,0-1.38-.63-1.38-1.45v-4.49h-.92v-.95h.92v-1.9h1.14v1.9h1.1v.95Z"/><path class="cls-1" d="M623.64,467.13c2.17,0,3.16,1.83,3.16,3.58s-1,3.59-3.16,3.59-3.16-1.83-3.16-3.59S621.47,467.13,623.64,467.13Zm0,6.18c1.64,0,2-1.69,2-2.6s-.34-2.59-2-2.59-2,1.68-2,2.59S622,473.31,623.64,473.31Z"/><path class="cls-1" d="M629.22,474.12h-1.35v-1.38h1.35Z"/><path class="cls-1" d="M452.33,483.12a2,2,0,0,0-2.31-1.9c-.79,0-2.13.22-2.13,1.64,0,.79.56,1.05,1.1,1.18l2.67.61a2.43,2.43,0,0,1,2.12,2.5c0,2.21-2.06,2.82-3.66,2.82a3.69,3.69,0,0,1-2.82-.9,2.87,2.87,0,0,1-.95-2.36h1.19c0,1.68,1.37,2.18,2.57,2.18.91,0,2.44-.24,2.44-1.57,0-1-.45-1.29-2-1.66l-1.92-.44a2.24,2.24,0,0,1-2-2.19c0-1.46.94-2.89,3.21-2.89,3.26,0,3.58,1.95,3.64,3Z"/><path class="cls-1" d="M459.67,489.72v-1l0,0a2.25,2.25,0,0,1-2.16,1.21,2,2,0,0,1-2.21-2.11v-4.89h1.15v4.51c0,1.12.57,1.5,1.31,1.5,1.44,0,1.87-1.28,1.87-2.26v-3.75h1.14v6.8Z"/><path class="cls-1" d="M466.32,484.86c0-.43-.17-1.15-1.61-1.15-.35,0-1.35.12-1.35,1,0,.56.35.69,1.23.91l1.15.28c1.41.35,1.91.87,1.91,1.8,0,1.4-1.16,2.25-2.69,2.25-2.7,0-2.89-1.56-2.93-2.38h1.11c0,.53.19,1.39,1.8,1.39.82,0,1.56-.33,1.56-1.08,0-.55-.37-.73-1.35-1l-1.33-.32c-.94-.24-1.57-.72-1.57-1.65,0-1.5,1.24-2.17,2.58-2.17,2.43,0,2.6,1.79,2.6,2.13Z"/><path class="cls-1" d="M468.87,482.92H470v1h0a2.32,2.32,0,0,1,2-1.15c1.81,0,2.84,1.48,2.84,3.39,0,1.62-.68,3.8-3,3.8A2.05,2.05,0,0,1,470,489h0v3.4h-1.14Zm2.95,6c1.25,0,1.83-1.13,1.83-2.63,0-.87-.09-2.55-1.86-2.55s-1.83,1.79-1.83,2.89C470,488.45,471.09,488.93,471.82,488.93Z"/><path class="cls-1" d="M482,487.59a3,3,0,0,1-1.21,1.86,2.9,2.9,0,0,1-1.85.47c-1.91,0-3-1.45-3-3.41s1-3.78,3.27-3.78c2,0,2.92,1.56,2.92,4h-5c0,1.42.67,2.24,2,2.24a1.73,1.73,0,0,0,1.76-1.34Zm-1.09-1.81c-.07-1-.51-2-1.9-2a2,2,0,0,0-1.89,2Z"/><path class="cls-1" d="M489,489.72h-1.14v-4.18c0-1.19-.34-1.79-1.46-1.79-.65,0-1.79.42-1.79,2.27v3.7h-1.15v-6.8h1.08v1h0a2.47,2.47,0,0,1,2.05-1.15,2.15,2.15,0,0,1,2.38,2.36Z"/><path class="cls-1" d="M496.28,489.72h-1.07v-.93h0a2,2,0,0,1-1.94,1.13c-2.31,0-3-2.18-3-3.8,0-1.91,1-3.39,2.84-3.39a2.28,2.28,0,0,1,2,1.15l0-.09v-3.4h1.14Zm-3-.79c.73,0,1.86-.48,1.86-2.29,0-1.1-.18-2.89-1.84-2.89s-1.86,1.68-1.86,2.55C491.43,487.8,492,488.93,493.27,488.93Z"/><path class="cls-1" d="M497.9,481.69v-1.3H499v1.3Zm1.14,8H497.9v-6.8H499Z"/><path class="cls-1" d="M504.62,484.86c0-.43-.17-1.15-1.62-1.15-.35,0-1.35.12-1.35,1,0,.56.35.69,1.24.91l1.14.28c1.42.35,1.91.87,1.91,1.8,0,1.4-1.15,2.25-2.69,2.25-2.69,0-2.88-1.56-2.92-2.38h1.1c0,.53.2,1.39,1.81,1.39.82,0,1.56-.33,1.56-1.08,0-.55-.38-.73-1.35-1l-1.33-.32c-.95-.24-1.57-.72-1.57-1.65,0-1.5,1.23-2.17,2.57-2.17,2.43,0,2.6,1.79,2.6,2.13Z"/><path class="cls-1" d="M511.12,484.86c0-.43-.17-1.15-1.62-1.15-.35,0-1.35.12-1.35,1,0,.56.35.69,1.24.91l1.14.28c1.42.35,1.91.87,1.91,1.8,0,1.4-1.15,2.25-2.69,2.25-2.69,0-2.88-1.56-2.92-2.38h1.1c0,.53.2,1.39,1.81,1.39.82,0,1.56-.33,1.56-1.08,0-.55-.38-.73-1.35-1l-1.33-.32c-.95-.24-1.57-.72-1.57-1.65,0-1.5,1.23-2.17,2.57-2.17,2.43,0,2.6,1.79,2.6,2.13Z"/><path class="cls-1" d="M519.53,487.59a3,3,0,0,1-1.21,1.86,2.92,2.92,0,0,1-1.85.47c-1.91,0-3-1.45-3-3.41s1-3.78,3.26-3.78c2,0,2.93,1.56,2.93,4h-5c0,1.42.67,2.24,2,2.24a1.72,1.72,0,0,0,1.75-1.34Zm-1.09-1.81c-.07-1-.51-2-1.9-2a2,2,0,0,0-1.89,2Z"/><path class="cls-1" d="M526,483.87v5.85h-1.14v-5.85h-.94v-.95h.94v-1.17c0-1,.65-1.49,1.77-1.49l.52,0v1l-.47,0c-.49,0-.68.25-.68.8v.84h1.15v.95Z"/><path class="cls-1" d="M528.24,481.69v-1.3h1.14v1.3Zm1.14,8h-1.14v-6.8h1.14Z"/><path class="cls-1" d="M536.63,489.72h-1.14v-4.18c0-1.19-.34-1.79-1.45-1.79-.66,0-1.8.42-1.8,2.27v3.7H531.1v-6.8h1.08v1h0a2.49,2.49,0,0,1,2.06-1.15,2.14,2.14,0,0,1,2.37,2.36Z"/><path class="cls-1" d="M538.35,481.69v-1.3h1.14v1.3Zm1.14,8h-1.14v-6.8h1.14Z"/><path class="cls-1" d="M541.12,489.72v-9.33h1.14v3.39h0a2.29,2.29,0,0,1,2-1c1.81,0,2.84,1.48,2.84,3.39,0,1.62-.68,3.8-3,3.8a2,2,0,0,1-1.88-1.05h0v.85Zm2.92-6c-1.65,0-1.83,1.79-1.83,2.89,0,1.81,1.13,2.29,1.86,2.29,1.25,0,1.83-1.13,1.83-2.63C545.9,485.43,545.81,483.75,544,483.75Z"/><path class="cls-1" d="M552.61,489.72v-1l0,0a2.24,2.24,0,0,1-2.15,1.21,2,2,0,0,1-2.21-2.11v-4.89h1.14v4.51c0,1.12.57,1.5,1.31,1.5,1.45,0,1.88-1.28,1.88-2.26v-3.75h1.14v6.8Z"/><path class="cls-1" d="M559.27,484.86c0-.43-.17-1.15-1.62-1.15-.35,0-1.35.12-1.35,1,0,.56.35.69,1.24.91l1.14.28c1.42.35,1.91.87,1.91,1.8,0,1.4-1.15,2.25-2.69,2.25-2.69,0-2.88-1.56-2.92-2.38h1.1c0,.53.2,1.39,1.81,1.39.82,0,1.56-.33,1.56-1.08,0-.55-.38-.73-1.35-1l-1.33-.32c-.95-.24-1.57-.72-1.57-1.65,0-1.5,1.23-2.17,2.57-2.17,2.43,0,2.6,1.79,2.6,2.13Z"/><path class="cls-1" d="M566.94,483.87v5.85h-1.15v-5.85h-.93v-.95h.93v-1.17c0-1,.65-1.49,1.77-1.49l.52,0v1l-.47,0c-.49,0-.67.25-.67.8v.84h1.14v.95Z"/><path class="cls-1" d="M574.52,487.59a3,3,0,0,1-1.21,1.86,2.92,2.92,0,0,1-1.85.47c-1.91,0-3-1.45-3-3.41s1-3.78,3.26-3.78c2,0,2.93,1.56,2.93,4h-5c0,1.42.66,2.24,2,2.24a1.72,1.72,0,0,0,1.75-1.34Zm-1.1-1.81c-.06-1-.5-2-1.89-2a2,2,0,0,0-1.89,2Z"/><path class="cls-1" d="M577.27,489.72h-1.14v-6.8h1.08v1.13h0a2.22,2.22,0,0,1,1.91-1.32.8.8,0,0,1,.3,0V484H579a1.73,1.73,0,0,0-1.74,1.82Z"/><path class="cls-1" d="M580.63,482.92h1.07v1h0a2.39,2.39,0,0,1,2-1.15,1.83,1.83,0,0,1,1.81,1.1,2.48,2.48,0,0,1,2.08-1.1,2,2,0,0,1,2.11,2.28v4.71h-1.15v-4.39c0-.94-.28-1.58-1.26-1.58a1.73,1.73,0,0,0-1.6,1.82v4.15h-1.14V485c0-.57-.22-1.26-1.07-1.26-.65,0-1.79.42-1.79,2.27v3.7h-1.14Z"/><path class="cls-1" d="M597.23,487.59a3,3,0,0,1-1.21,1.86,2.92,2.92,0,0,1-1.85.47c-1.91,0-3-1.45-3-3.41s1-3.78,3.26-3.78c2,0,2.93,1.56,2.93,4h-5c0,1.42.66,2.24,2,2.24a1.72,1.72,0,0,0,1.75-1.34Zm-1.1-1.81c-.06-1-.5-2-1.89-2a2,2,0,0,0-1.89,2Z"/><path class="cls-1" d="M604.22,489.72h-1.14v-4.18c0-1.19-.34-1.79-1.46-1.79-.65,0-1.79.42-1.79,2.27v3.7h-1.15v-6.8h1.08v1h0a2.45,2.45,0,0,1,2.05-1.15,2.15,2.15,0,0,1,2.38,2.36Z"/><path class="cls-1" d="M607.31,483.87v4.42c0,.53.46.53.69.53h.41v.9c-.42,0-.75.09-.86.09-1.13,0-1.38-.64-1.38-1.45v-4.49h-.92v-.95h.92V481h1.14v1.9h1.1v.95Z"/><path class="cls-1" d="M614,489.72v-1l0,0a2.24,2.24,0,0,1-2.16,1.21,2,2,0,0,1-2.21-2.11v-4.89h1.15v4.51c0,1.12.57,1.5,1.31,1.5,1.44,0,1.87-1.28,1.87-2.26v-3.75H615v6.8Z"/><path class="cls-1" d="M616.75,482.92h1.08v1h0a2.37,2.37,0,0,1,2-1.15,1.86,1.86,0,0,1,1.81,1.1,2.47,2.47,0,0,1,2.08-1.1,2,2,0,0,1,2.1,2.28v4.71h-1.14v-4.39c0-.94-.29-1.58-1.26-1.58a1.73,1.73,0,0,0-1.6,1.82v4.15h-1.14V485c0-.57-.23-1.26-1.07-1.26-.65,0-1.79.42-1.79,2.27v3.7h-1.15Z"/><path class="cls-1" d="M629.22,489.72h-1.35v-1.38h1.35Z"/><path d="M428.37,535.12v-5.51c0-.27,0-1.46,0-2.33h0l-2.62,7.84H424.5l-2.63-7.83h0c0,.86,0,2.05,0,2.32v5.51h-1.22v-9.33h1.81l2.66,7.89h0l2.65-7.89h1.8v9.33Z"/><path d="M434.15,528.13c2.17,0,3.15,1.83,3.15,3.58s-1,3.59-3.15,3.59-3.16-1.83-3.16-3.59S432,528.13,434.15,528.13Zm0,6.18c1.63,0,2-1.69,2-2.6s-.34-2.59-2-2.59-2,1.68-2,2.59S432.51,534.31,434.15,534.31Z"/><path d="M439.9,535.12h-1.14v-6.8h1.08v1.13h0a2.2,2.2,0,0,1,1.91-1.32.87.87,0,0,1,.3,0v1.18h-.43a1.73,1.73,0,0,0-1.75,1.82Z"/><path d="M442.84,535.12v-9.33H444v3.39h0a2.3,2.3,0,0,1,2-1c1.81,0,2.84,1.48,2.84,3.39,0,1.62-.68,3.8-3,3.8a2,2,0,0,1-1.87-1h0v.84Zm2.93-6c-1.65,0-1.84,1.79-1.84,2.89,0,1.81,1.14,2.29,1.86,2.29,1.25,0,1.84-1.13,1.84-2.63C447.63,530.83,447.54,529.15,445.77,529.15Z"/><path d="M450.19,527.09v-1.3h1.14v1.3Zm1.14,8h-1.14v-6.8h1.14Z"/><path d="M462.24,537.81h-1.15v-3.4h0a2.05,2.05,0,0,1-1.81.91c-2.31,0-3-2.18-3-3.8,0-1.91,1-3.39,2.83-3.39a2.29,2.29,0,0,1,2,1.15h0v-1h1.08Zm-2.93-8.66c-1.77,0-1.86,1.68-1.86,2.55,0,1.5.59,2.63,1.84,2.63.72,0,1.86-.48,1.86-2.29C461.15,530.94,461,529.15,459.31,529.15Z"/><path d="M468.32,535.12v-1l0,0a2.24,2.24,0,0,1-2.15,1.21,2,2,0,0,1-2.21-2.11v-4.89h1.14v4.51c0,1.12.57,1.5,1.31,1.5,1.45,0,1.88-1.28,1.88-2.26v-3.75h1.14v6.8Z"/><path d="M471.14,527.09v-1.3h1.15v1.3Zm1.15,8h-1.15v-6.8h1.15Z"/><path d="M477.86,530.26c0-.43-.17-1.14-1.61-1.14-.35,0-1.35.11-1.35,1,0,.56.35.69,1.23.91l1.15.28c1.41.35,1.91.87,1.91,1.8,0,1.4-1.16,2.25-2.69,2.25-2.69,0-2.89-1.56-2.93-2.38h1.11c0,.53.19,1.39,1.8,1.39.82,0,1.56-.33,1.56-1.08,0-.55-.37-.73-1.35-1l-1.32-.32c-.95-.24-1.58-.72-1.58-1.65,0-1.5,1.24-2.17,2.58-2.17,2.43,0,2.6,1.79,2.6,2.13Z"/><path d="M484,528.32h1.08v1h0a2.29,2.29,0,0,1,2-1.15c1.8,0,2.83,1.48,2.83,3.39,0,1.62-.67,3.8-3,3.8a2.05,2.05,0,0,1-1.81-.91h0v3.4H484Zm3,6c1.24,0,1.83-1.13,1.83-2.63,0-.87-.09-2.55-1.86-2.55s-1.83,1.79-1.83,2.89C485.12,533.85,486.25,534.33,487,534.33Z"/><path d="M496.88,535.12h-1.14v-4.45c0-.92-.26-1.52-1.36-1.52-.93,0-1.89.55-1.89,2.27v3.7h-1.15v-9.33h1.15v3.44h0a2.41,2.41,0,0,1,2-1.1,2.15,2.15,0,0,1,2.38,2.36Z"/><path d="M498.53,530.39c.05-1.63,1.13-2.26,2.81-2.26.55,0,2.52.15,2.52,1.9v3.91c0,.28.14.4.38.4a3.07,3.07,0,0,0,.38-.05v.83a2.26,2.26,0,0,1-.63.13c-1,0-1.17-.52-1.21-1a3.09,3.09,0,0,1-2.45,1.11,2,2,0,0,1-2.14-2,2,2,0,0,1,2.07-2.13l1.89-.23c.27,0,.59-.13.59-.81s-.52-1.1-1.6-1.1a1.35,1.35,0,0,0-1.56,1.31Zm4.19,1.26c-.18.14-.47.25-1.89.43-.56.08-1.45.25-1.45,1.1a1.07,1.07,0,0,0,1.23,1.19c1.07,0,2.11-.69,2.11-1.6Z"/><path d="M507.1,535.12H506v-6.8H507v1.13h0a2.2,2.2,0,0,1,1.91-1.32.84.84,0,0,1,.3,0v1.18h-.43a1.72,1.72,0,0,0-1.74,1.82Z"/><path d="M515.9,533a3,3,0,0,1-1.21,1.86,2.9,2.9,0,0,1-1.85.47c-1.91,0-3-1.45-3-3.41s1-3.78,3.27-3.78c2,0,2.92,1.56,2.92,4h-5c0,1.42.67,2.24,2,2.24a1.73,1.73,0,0,0,1.76-1.34Zm-1.09-1.81c-.07-1-.51-2-1.9-2a2,2,0,0,0-1.89,2Z"/><path d="M518.76,529.27v4.42c0,.53.45.53.69.53h.4v.9c-.42,0-.74.09-.86.09-1.13,0-1.37-.63-1.37-1.45v-4.49h-.93v-.95h.93v-1.9h1.14v1.9h1.09v.95Z"/><path d="M522.27,535.12h-1.14v-6.8h1.07v1.13h0a2.21,2.21,0,0,1,1.91-1.32.84.84,0,0,1,.3,0v1.18H524a1.73,1.73,0,0,0-1.74,1.82Z"/><path d="M525.13,530.39c0-1.63,1.13-2.26,2.81-2.26.54,0,2.52.15,2.52,1.9v3.91c0,.28.14.4.38.4a2.93,2.93,0,0,0,.37-.05v.83a2.12,2.12,0,0,1-.62.13c-1,0-1.17-.52-1.21-1a3.09,3.09,0,0,1-2.46,1.11,2,2,0,0,1-2.13-2,2,2,0,0,1,2.07-2.13l1.88-.23c.28,0,.6-.13.6-.81s-.52-1.1-1.6-1.1a1.35,1.35,0,0,0-1.56,1.31Zm4.19,1.26c-.19.14-.47.25-1.89.43-.56.08-1.46.25-1.46,1.1a1.08,1.08,0,0,0,1.24,1.19c1.07,0,2.11-.69,2.11-1.6Z"/><path d="M537.18,536.12c0,.59,0,1.73-1.74,1.73a2.67,2.67,0,0,1-.48,0v-1h.23c.68,0,.85-.06.85-.83v-7.67h1.14Zm0-9H536v-1.3h1.14Z"/><path d="M543.33,535.12v-1l0,0a2.24,2.24,0,0,1-2.16,1.21,2,2,0,0,1-2.21-2.11v-4.89h1.15v4.51c0,1.12.57,1.5,1.31,1.5,1.44,0,1.87-1.28,1.87-2.26v-3.75h1.15v6.8Z"/><path d="M550,530.26c0-.43-.16-1.14-1.61-1.14-.35,0-1.35.11-1.35,1,0,.56.35.69,1.24.91l1.14.28c1.42.35,1.91.87,1.91,1.8,0,1.4-1.16,2.25-2.69,2.25-2.69,0-2.89-1.56-2.93-2.38h1.11c0,.53.19,1.39,1.81,1.39.82,0,1.56-.33,1.56-1.08,0-.55-.38-.73-1.36-1l-1.32-.32c-1-.24-1.57-.72-1.57-1.65,0-1.5,1.23-2.17,2.57-2.17,2.43,0,2.6,1.79,2.6,2.13Z"/><path d="M554,529.27v4.42c0,.53.45.53.69.53h.4v.9c-.42,0-.74.09-.86.09-1.13,0-1.38-.63-1.38-1.45v-4.49H552v-.95h.92v-1.9H554v1.9h1.09v.95Z"/><path d="M559,528.13c2.17,0,3.16,1.83,3.16,3.58s-1,3.59-3.16,3.59-3.16-1.83-3.16-3.59S556.84,528.13,559,528.13Zm0,6.18c1.63,0,2-1.69,2-2.6s-.34-2.59-2-2.59-2,1.68-2,2.59S557.37,534.31,559,534.31Z"/><path d="M564.58,535.12h-1.35v-1.38h1.35Z"/><path d="M426.32,544.12a2,2,0,0,0-2.32-1.9c-.79,0-2.13.22-2.13,1.64,0,.79.56,1,1.11,1.18l2.66.61a2.43,2.43,0,0,1,2.12,2.5c0,2.21-2.05,2.82-3.65,2.82a3.67,3.67,0,0,1-2.82-.9,2.87,2.87,0,0,1-1-2.36h1.18c0,1.68,1.38,2.18,2.58,2.18.91,0,2.44-.24,2.44-1.57,0-1-.46-1.29-2-1.66l-1.91-.44a2.24,2.24,0,0,1-2-2.19c0-1.46,1-2.89,3.21-2.89,3.27,0,3.59,2,3.64,3Z"/><path d="M433.65,550.72v-1l0,0a2.26,2.26,0,0,1-2.16,1.21,2,2,0,0,1-2.21-2.11v-4.89h1.14v4.51c0,1.12.57,1.5,1.31,1.5,1.45,0,1.88-1.28,1.88-2.26v-3.75h1.14v6.8Z"/><path d="M440.31,545.86c0-.43-.17-1.15-1.62-1.15-.35,0-1.35.12-1.35,1,0,.56.35.69,1.24.91l1.14.28c1.42.35,1.91.87,1.91,1.8,0,1.4-1.15,2.25-2.69,2.25-2.69,0-2.88-1.56-2.92-2.38h1.1c0,.53.2,1.39,1.81,1.39.82,0,1.56-.33,1.56-1.08,0-.55-.38-.73-1.35-1l-1.33-.32c-.95-.24-1.57-.72-1.57-1.65,0-1.5,1.23-2.17,2.57-2.17,2.43,0,2.6,1.79,2.6,2.13Z"/><path d="M442.85,543.92h1.08v1h0a2.29,2.29,0,0,1,2-1.15c1.8,0,2.83,1.48,2.83,3.39,0,1.62-.67,3.8-3,3.8A2.05,2.05,0,0,1,444,550h0v3.4h-1.15Zm3,6c1.24,0,1.83-1.13,1.83-2.63,0-.87-.09-2.55-1.86-2.55s-1.83,1.79-1.83,2.89C444,549.45,445.08,549.93,445.81,549.93Z"/><path d="M456,548.59a3,3,0,0,1-1.21,1.86,2.94,2.94,0,0,1-1.85.47c-1.91,0-3-1.45-3-3.41s1-3.78,3.26-3.78c2,0,2.93,1.56,2.93,4h-5c0,1.42.66,2.24,2,2.24a1.72,1.72,0,0,0,1.75-1.34Zm-1.1-1.81c-.06-1-.5-2-1.89-2a2,2,0,0,0-1.89,2Z"/><path d="M462.94,550.72h-1.15v-4.18c0-1.19-.33-1.79-1.45-1.79-.65,0-1.8.42-1.8,2.27v3.7H457.4v-6.8h1.08v1h0a2.45,2.45,0,0,1,2.05-1.15,2.15,2.15,0,0,1,2.38,2.36Z"/><path d="M470.27,550.72h-1.08v-.93h0a2.06,2.06,0,0,1-1.94,1.13c-2.32,0-3-2.18-3-3.8,0-1.91,1-3.39,2.83-3.39a2.29,2.29,0,0,1,2,1.15l0-.09v-3.4h1.14Zm-3-.79c.73,0,1.86-.48,1.86-2.29,0-1.1-.18-2.89-1.83-2.89s-1.86,1.68-1.86,2.55C465.42,548.8,466,549.93,467.25,549.93Z"/><path d="M471.88,542.69v-1.3H473v1.3Zm1.15,8h-1.15v-6.8H473Z"/><path d="M478.6,545.86c0-.43-.17-1.15-1.61-1.15-.35,0-1.35.12-1.35,1,0,.56.35.69,1.23.91l1.15.28c1.41.35,1.91.87,1.91,1.8,0,1.4-1.16,2.25-2.69,2.25-2.69,0-2.89-1.56-2.93-2.38h1.11c0,.53.19,1.39,1.8,1.39.82,0,1.57-.33,1.57-1.08,0-.55-.38-.73-1.36-1l-1.32-.32c-.95-.24-1.58-.72-1.58-1.65,0-1.5,1.24-2.17,2.58-2.17,2.43,0,2.6,1.79,2.6,2.13Z"/><path d="M485.1,545.86c0-.43-.17-1.15-1.61-1.15-.35,0-1.35.12-1.35,1,0,.56.35.69,1.23.91l1.15.28c1.41.35,1.91.87,1.91,1.8,0,1.4-1.16,2.25-2.69,2.25-2.69,0-2.89-1.56-2.93-2.38h1.11c0,.53.19,1.39,1.8,1.39.82,0,1.57-.33,1.57-1.08,0-.55-.38-.73-1.36-1l-1.32-.32c-.95-.24-1.58-.72-1.58-1.65,0-1.5,1.24-2.17,2.58-2.17,2.43,0,2.6,1.79,2.6,2.13Z"/><path d="M493.51,548.59a3,3,0,0,1-1.21,1.86,2.88,2.88,0,0,1-1.84.47c-1.91,0-3-1.45-3-3.41s1-3.78,3.26-3.78c2,0,2.92,1.56,2.92,4h-5c0,1.42.66,2.24,2,2.24a1.73,1.73,0,0,0,1.76-1.34Zm-1.09-1.81c-.06-1-.5-2-1.9-2a2,2,0,0,0-1.88,2Z"/><path d="M500,544.87v5.85h-1.14v-5.85h-.94v-1h.94v-1.17c0-1,.65-1.49,1.76-1.49l.52,0v1l-.46,0c-.5,0-.68.25-.68.8v.84h1.14v1Z"/><path d="M502.22,542.69v-1.3h1.15v1.3Zm1.15,8h-1.15v-6.8h1.15Z"/><path d="M510.62,550.72h-1.14v-4.18c0-1.19-.34-1.79-1.46-1.79-.65,0-1.79.42-1.79,2.27v3.7h-1.15v-6.8h1.08v1h0a2.47,2.47,0,0,1,2.05-1.15,2.15,2.15,0,0,1,2.38,2.36Z"/><path d="M512.34,542.69v-1.3h1.14v1.3Zm1.14,8h-1.14v-6.8h1.14Z"/><path d="M515.11,550.72v-9.33h1.14v3.39h0a2.29,2.29,0,0,1,2-1c1.81,0,2.83,1.48,2.83,3.39,0,1.62-.67,3.8-3,3.8a2,2,0,0,1-1.87-1h0v.85Zm2.92-6c-1.65,0-1.83,1.79-1.83,2.89,0,1.81,1.13,2.29,1.86,2.29,1.24,0,1.83-1.13,1.83-2.63C519.89,546.43,519.8,544.75,518,544.75Z"/><path d="M526.6,550.72v-1l0,0a2.24,2.24,0,0,1-2.16,1.21,2,2,0,0,1-2.21-2.11v-4.89h1.15v4.51c0,1.12.57,1.5,1.31,1.5,1.44,0,1.87-1.28,1.87-2.26v-3.75h1.15v6.8Z"/><path d="M533.25,545.86c0-.43-.17-1.15-1.61-1.15-.35,0-1.35.12-1.35,1,0,.56.35.69,1.23.91l1.15.28c1.41.35,1.91.87,1.91,1.8,0,1.4-1.16,2.25-2.69,2.25-2.69,0-2.89-1.56-2.93-2.38h1.11c0,.53.19,1.39,1.81,1.39.81,0,1.56-.33,1.56-1.08,0-.55-.38-.73-1.36-1l-1.32-.32c-1-.24-1.58-.72-1.58-1.65,0-1.5,1.24-2.17,2.58-2.17,2.43,0,2.6,1.79,2.6,2.13Z"/><path d="M540.92,544.87v5.85h-1.14v-5.85h-.94v-1h.94v-1.17c0-1,.65-1.49,1.77-1.49l.52,0v1l-.47,0c-.49,0-.68.25-.68.8v.84h1.15v1Z"/><path d="M548.5,548.59a3,3,0,0,1-1.21,1.86,2.88,2.88,0,0,1-1.84.47c-1.91,0-3-1.45-3-3.41s1-3.78,3.26-3.78c2,0,2.92,1.56,2.92,4h-5c0,1.42.66,2.24,2,2.24a1.73,1.73,0,0,0,1.76-1.34Zm-1.09-1.81c-.06-1-.51-2-1.9-2a2,2,0,0,0-1.88,2Z"/><path d="M551.26,550.72h-1.15v-6.8h1.08v1.13h0a2.2,2.2,0,0,1,1.91-1.32.84.84,0,0,1,.3,0V545H553a1.72,1.72,0,0,0-1.74,1.82Z"/><path d="M554.61,543.92h1.08v1h0a2.37,2.37,0,0,1,2-1.15,1.86,1.86,0,0,1,1.81,1.1,2.47,2.47,0,0,1,2.08-1.1,2,2,0,0,1,2.1,2.28v4.71h-1.14v-4.39c0-.94-.29-1.58-1.26-1.58a1.73,1.73,0,0,0-1.6,1.82v4.15h-1.14V546c0-.57-.23-1.26-1.07-1.26-.65,0-1.79.42-1.79,2.27v3.7h-1.15Z"/><path d="M571.21,548.59a3,3,0,0,1-1.21,1.86,2.88,2.88,0,0,1-1.84.47c-1.91,0-3-1.45-3-3.41s1-3.78,3.26-3.78c2,0,2.92,1.56,2.92,4h-5c0,1.42.66,2.24,2,2.24a1.73,1.73,0,0,0,1.76-1.34Zm-1.09-1.81c-.06-1-.51-2-1.9-2a2,2,0,0,0-1.88,2Z"/><path d="M578.21,550.72h-1.15v-4.18c0-1.19-.34-1.79-1.45-1.79-.65,0-1.8.42-1.8,2.27v3.7h-1.14v-6.8h1.08v1h0a2.49,2.49,0,0,1,2.06-1.15,2.15,2.15,0,0,1,2.38,2.36Z"/><path d="M581.3,544.87v4.42c0,.53.45.53.69.53h.4v.9c-.41,0-.74.09-.86.09-1.13,0-1.37-.64-1.37-1.45v-4.49h-.93v-1h.93V542h1.14v1.9h1.09v1Z"/><path d="M587.94,550.72v-1l0,0a2.25,2.25,0,0,1-2.16,1.21,2,2,0,0,1-2.21-2.11v-4.89h1.14v4.51c0,1.12.58,1.5,1.32,1.5,1.44,0,1.87-1.28,1.87-2.26v-3.75H589v6.8Z"/><path d="M590.74,543.92h1.08v1h0a2.4,2.4,0,0,1,2.06-1.15,1.83,1.83,0,0,1,1.8,1.1,2.49,2.49,0,0,1,2.08-1.1,2,2,0,0,1,2.11,2.28v4.71h-1.14v-4.39c0-.94-.29-1.58-1.27-1.58a1.72,1.72,0,0,0-1.59,1.82v4.15h-1.15V546c0-.57-.22-1.26-1.06-1.26-.65,0-1.8.42-1.8,2.27v3.7h-1.14Z"/><path d="M603.21,550.72h-1.36v-1.38h1.36Z"/><path class="cls-1" d="M493,598.12v-5.51c0-.27,0-1.46,0-2.33h0l-2.63,7.84h-1.24l-2.63-7.83h0c0,.86,0,2.05,0,2.32v5.51h-1.22v-9.33h1.8l2.67,7.89h0l2.65-7.89h1.79v9.33Z"/><path class="cls-1" d="M498.78,591.13c2.17,0,3.16,1.83,3.16,3.58s-1,3.59-3.16,3.59-3.16-1.83-3.16-3.59S496.61,591.13,498.78,591.13Zm0,6.18c1.64,0,2-1.69,2-2.6s-.34-2.59-2-2.59-2,1.68-2,2.59S497.14,597.31,498.78,597.31Z"/><path class="cls-1" d="M504.54,598.12H503.4v-6.8h1.08v1.13h0a2.21,2.21,0,0,1,1.91-1.32.8.8,0,0,1,.3,0v1.18h-.43a1.73,1.73,0,0,0-1.74,1.82Z"/><path class="cls-1" d="M507.48,598.12v-9.33h1.14v3.39h0a2.29,2.29,0,0,1,2-1c1.81,0,2.84,1.48,2.84,3.39,0,1.62-.68,3.8-3,3.8a2.06,2.06,0,0,1-1.88-1h0v.84Zm2.92-6c-1.65,0-1.83,1.79-1.83,2.89,0,1.81,1.13,2.29,1.86,2.29,1.25,0,1.83-1.13,1.83-2.63C512.26,593.83,512.17,592.15,510.4,592.15Z"/><path class="cls-1" d="M514.82,590.09v-1.3H516v1.3Zm1.15,8h-1.15v-6.8H516Z"/><path class="cls-1" d="M526.87,600.81h-1.14v-3.4h0a2,2,0,0,1-1.8.91c-2.32,0-3-2.18-3-3.8,0-1.91,1-3.39,2.83-3.39a2.29,2.29,0,0,1,2,1.15h0v-1h1.08ZM524,592.15c-1.77,0-1.86,1.68-1.86,2.55,0,1.5.58,2.63,1.83,2.63.73,0,1.86-.48,1.86-2.29C525.78,593.94,525.6,592.15,524,592.15Z"/><path class="cls-1" d="M533,598.12v-1l0,0a2.24,2.24,0,0,1-2.16,1.21,2,2,0,0,1-2.21-2.11v-4.89h1.15v4.51c0,1.12.57,1.5,1.31,1.5,1.44,0,1.87-1.28,1.87-2.26v-3.75H534v6.8Z"/><path class="cls-1" d="M535.78,590.09v-1.3h1.14v1.3Zm1.14,8h-1.14v-6.8h1.14Z"/><path class="cls-1" d="M542.5,593.26c0-.43-.17-1.14-1.61-1.14-.35,0-1.35.11-1.35,1,0,.56.35.69,1.23.91l1.14.28c1.42.35,1.92.87,1.92,1.8,0,1.4-1.16,2.25-2.7,2.25-2.69,0-2.88-1.56-2.92-2.38h1.1c0,.53.2,1.39,1.81,1.39.82,0,1.56-.33,1.56-1.08,0-.55-.38-.73-1.35-1L540,595c-1-.24-1.57-.72-1.57-1.65,0-1.5,1.24-2.17,2.57-2.17,2.44,0,2.6,1.79,2.6,2.13Z"/><path class="cls-1" d="M548.66,591.32h1.08v1h0a2.28,2.28,0,0,1,2-1.15c1.81,0,2.84,1.48,2.84,3.39,0,1.62-.68,3.8-3,3.8a2.05,2.05,0,0,1-1.81-.91h0v3.4h-1.15Zm3,6c1.25,0,1.84-1.13,1.84-2.63,0-.87-.1-2.55-1.86-2.55s-1.84,1.79-1.84,2.89C549.75,596.85,550.88,597.33,551.61,597.33Z"/><path class="cls-1" d="M561.52,598.12h-1.15v-4.45c0-.92-.26-1.52-1.35-1.52-.93,0-1.9.55-1.9,2.27v3.7H556v-9.33h1.14v3.44h0a2.39,2.39,0,0,1,2-1.1,2.15,2.15,0,0,1,2.38,2.36Z"/><path class="cls-1" d="M563.17,593.39c.05-1.63,1.13-2.26,2.81-2.26.54,0,2.52.15,2.52,1.9v3.91c0,.28.14.4.38.4a2.93,2.93,0,0,0,.37-.05v.83a2.12,2.12,0,0,1-.62.13c-1,0-1.17-.52-1.21-1a3.09,3.09,0,0,1-2.46,1.11,2,2,0,0,1-2.13-2,2,2,0,0,1,2.07-2.13l1.88-.23c.28,0,.6-.13.6-.81s-.52-1.1-1.6-1.1a1.35,1.35,0,0,0-1.56,1.31Zm4.18,1.26c-.18.14-.46.25-1.88.43-.56.08-1.46.25-1.46,1.1a1.08,1.08,0,0,0,1.24,1.19c1.06,0,2.1-.69,2.1-1.6Z"/><path class="cls-1" d="M571.74,598.12h-1.15v-6.8h1.08v1.13h0a2.2,2.2,0,0,1,1.91-1.32.84.84,0,0,1,.3,0v1.18h-.43a1.72,1.72,0,0,0-1.74,1.82Z"/><path class="cls-1" d="M580.54,596a2.84,2.84,0,0,1-3.06,2.33c-1.91,0-3-1.45-3-3.41s1-3.78,3.26-3.78c2,0,2.93,1.56,2.93,4h-5c0,1.42.66,2.24,2,2.24a1.72,1.72,0,0,0,1.75-1.34Zm-1.1-1.81c-.06-1-.5-2-1.89-2a2,2,0,0,0-1.89,2Z"/><path class="cls-1" d="M583.4,592.27v4.42c0,.53.45.53.68.53h.41v.9c-.42,0-.74.09-.86.09-1.13,0-1.38-.63-1.38-1.45v-4.49h-.92v-.95h.92v-1.9h1.15v1.9h1.09v.95Z"/><path class="cls-1" d="M586.91,598.12h-1.15v-6.8h1.08v1.13h0a2.2,2.2,0,0,1,1.91-1.32.84.84,0,0,1,.3,0v1.18h-.43a1.72,1.72,0,0,0-1.74,1.82Z"/><path class="cls-1" d="M589.77,593.39c.05-1.63,1.13-2.26,2.8-2.26.55,0,2.53.15,2.53,1.9v3.91c0,.28.14.4.37.4a2.84,2.84,0,0,0,.38-.05v.83a2.12,2.12,0,0,1-.62.13c-1,0-1.17-.52-1.21-1a3.09,3.09,0,0,1-2.46,1.11,2,2,0,0,1-2.13-2,2,2,0,0,1,2.07-2.13l1.88-.23c.27,0,.6-.13.6-.81s-.52-1.1-1.6-1.1a1.35,1.35,0,0,0-1.56,1.31Zm4.18,1.26c-.18.14-.47.25-1.88.43-.56.08-1.46.25-1.46,1.1a1.08,1.08,0,0,0,1.24,1.19c1.06,0,2.1-.69,2.1-1.6Z"/><path class="cls-1" d="M601.82,599.12c0,.59-.06,1.73-1.74,1.73a2.77,2.77,0,0,1-.49,0v-1h.24c.67,0,.84-.06.84-.83v-7.67h1.15Zm0-9h-1.15v-1.3h1.15Z"/><path class="cls-1" d="M608,598.12v-1l0,0a2.25,2.25,0,0,1-2.16,1.21,2,2,0,0,1-2.21-2.11v-4.89h1.15v4.51c0,1.12.57,1.5,1.31,1.5,1.44,0,1.87-1.28,1.87-2.26v-3.75H609v6.8Z"/><path class="cls-1" d="M614.62,593.26c0-.43-.17-1.14-1.61-1.14-.35,0-1.35.11-1.35,1,0,.56.35.69,1.23.91l1.15.28c1.41.35,1.91.87,1.91,1.8,0,1.4-1.16,2.25-2.69,2.25-2.69,0-2.89-1.56-2.93-2.38h1.11c0,.53.19,1.39,1.8,1.39.82,0,1.56-.33,1.56-1.08,0-.55-.37-.73-1.35-1l-1.32-.32c-1-.24-1.58-.72-1.58-1.65,0-1.5,1.24-2.17,2.58-2.17,2.43,0,2.6,1.79,2.6,2.13Z"/><path class="cls-1" d="M618.66,592.27v4.42c0,.53.46.53.69.53h.41v.9c-.42,0-.74.09-.86.09-1.13,0-1.38-.63-1.38-1.45v-4.49h-.92v-.95h.92v-1.9h1.14v1.9h1.1v.95Z"/><path class="cls-1" d="M623.64,591.13c2.17,0,3.16,1.83,3.16,3.58s-1,3.59-3.16,3.59-3.16-1.83-3.16-3.59S621.47,591.13,623.64,591.13Zm0,6.18c1.64,0,2-1.69,2-2.6s-.34-2.59-2-2.59-2,1.68-2,2.59S622,597.31,623.64,597.31Z"/><path class="cls-1" d="M629.22,598.12h-1.35v-1.38h1.35Z"/><path class="cls-1" d="M452.33,607.12a2,2,0,0,0-2.31-1.9c-.79,0-2.13.22-2.13,1.64,0,.79.56,1,1.1,1.18l2.67.61a2.43,2.43,0,0,1,2.12,2.5c0,2.21-2.06,2.82-3.66,2.82a3.69,3.69,0,0,1-2.82-.9,2.87,2.87,0,0,1-.95-2.36h1.19c0,1.68,1.37,2.18,2.57,2.18.91,0,2.44-.24,2.44-1.57,0-1-.45-1.29-2-1.66l-1.92-.44a2.24,2.24,0,0,1-2-2.19c0-1.46.94-2.89,3.21-2.89,3.26,0,3.58,2,3.64,3Z"/><path class="cls-1" d="M459.67,613.72v-1l0,0a2.25,2.25,0,0,1-2.16,1.21,2,2,0,0,1-2.21-2.11v-4.89h1.15v4.51c0,1.12.57,1.5,1.31,1.5,1.44,0,1.87-1.28,1.87-2.26v-3.75h1.14v6.8Z"/><path class="cls-1" d="M466.32,608.86c0-.43-.17-1.15-1.61-1.15-.35,0-1.35.12-1.35,1,0,.56.35.69,1.23.91l1.15.28c1.41.35,1.91.87,1.91,1.8,0,1.4-1.16,2.25-2.69,2.25-2.7,0-2.89-1.56-2.93-2.38h1.11c0,.53.19,1.39,1.8,1.39.82,0,1.56-.33,1.56-1.08,0-.55-.37-.73-1.35-1l-1.33-.32c-.94-.24-1.57-.72-1.57-1.65,0-1.5,1.24-2.17,2.58-2.17,2.43,0,2.6,1.79,2.6,2.13Z"/><path class="cls-1" d="M468.87,606.92H470v1h0a2.32,2.32,0,0,1,2-1.15c1.81,0,2.84,1.48,2.84,3.39,0,1.62-.68,3.8-3,3.8A2.05,2.05,0,0,1,470,613h0v3.4h-1.14Zm2.95,6c1.25,0,1.83-1.13,1.83-2.63,0-.87-.09-2.55-1.86-2.55s-1.83,1.79-1.83,2.89C470,612.45,471.09,612.93,471.82,612.93Z"/><path class="cls-1" d="M482,611.59a3,3,0,0,1-1.21,1.86,2.9,2.9,0,0,1-1.85.47c-1.91,0-3-1.45-3-3.41s1-3.78,3.27-3.78c2,0,2.92,1.56,2.92,4h-5c0,1.42.67,2.24,2,2.24a1.73,1.73,0,0,0,1.76-1.34Zm-1.09-1.81c-.07-1-.51-2-1.9-2a2,2,0,0,0-1.89,2Z"/><path class="cls-1" d="M489,613.72h-1.14v-4.18c0-1.19-.34-1.79-1.46-1.79-.65,0-1.79.42-1.79,2.27v3.7h-1.15v-6.8h1.08v1h0a2.47,2.47,0,0,1,2.05-1.15,2.15,2.15,0,0,1,2.38,2.36Z"/><path class="cls-1" d="M496.28,613.72h-1.07v-.93h0a2,2,0,0,1-1.94,1.13c-2.31,0-3-2.18-3-3.8,0-1.91,1-3.39,2.84-3.39a2.28,2.28,0,0,1,2,1.15l0-.09v-3.4h1.14Zm-3-.79c.73,0,1.86-.48,1.86-2.29,0-1.1-.18-2.89-1.84-2.89s-1.86,1.68-1.86,2.55C491.43,611.8,492,612.93,493.27,612.93Z"/><path class="cls-1" d="M497.9,605.69v-1.3H499v1.3Zm1.14,8H497.9v-6.8H499Z"/><path class="cls-1" d="M504.62,608.86c0-.43-.17-1.15-1.62-1.15-.35,0-1.35.12-1.35,1,0,.56.35.69,1.24.91l1.14.28c1.42.35,1.91.87,1.91,1.8,0,1.4-1.15,2.25-2.69,2.25-2.69,0-2.88-1.56-2.92-2.38h1.1c0,.53.2,1.39,1.81,1.39.82,0,1.56-.33,1.56-1.08,0-.55-.38-.73-1.35-1l-1.33-.32c-.95-.24-1.57-.72-1.57-1.65,0-1.5,1.23-2.17,2.57-2.17,2.43,0,2.6,1.79,2.6,2.13Z"/><path class="cls-1" d="M511.12,608.86c0-.43-.17-1.15-1.62-1.15-.35,0-1.35.12-1.35,1,0,.56.35.69,1.24.91l1.14.28c1.42.35,1.91.87,1.91,1.8,0,1.4-1.15,2.25-2.69,2.25-2.69,0-2.88-1.56-2.92-2.38h1.1c0,.53.2,1.39,1.81,1.39.82,0,1.56-.33,1.56-1.08,0-.55-.38-.73-1.35-1l-1.33-.32c-.95-.24-1.57-.72-1.57-1.65,0-1.5,1.23-2.17,2.57-2.17,2.43,0,2.6,1.79,2.6,2.13Z"/><path class="cls-1" d="M519.53,611.59a3,3,0,0,1-1.21,1.86,2.92,2.92,0,0,1-1.85.47c-1.91,0-3-1.45-3-3.41s1-3.78,3.26-3.78c2,0,2.93,1.56,2.93,4h-5c0,1.42.67,2.24,2,2.24a1.72,1.72,0,0,0,1.75-1.34Zm-1.09-1.81c-.07-1-.51-2-1.9-2a2,2,0,0,0-1.89,2Z"/><path class="cls-1" d="M526,607.87v5.85h-1.14v-5.85h-.94v-1h.94v-1.17c0-1,.65-1.49,1.77-1.49l.52,0v1l-.47,0c-.49,0-.68.25-.68.8v.84h1.15v1Z"/><path class="cls-1" d="M528.24,605.69v-1.3h1.14v1.3Zm1.14,8h-1.14v-6.8h1.14Z"/><path class="cls-1" d="M536.63,613.72h-1.14v-4.18c0-1.19-.34-1.79-1.45-1.79-.66,0-1.8.42-1.8,2.27v3.7H531.1v-6.8h1.08v1h0a2.49,2.49,0,0,1,2.06-1.15,2.14,2.14,0,0,1,2.37,2.36Z"/><path class="cls-1" d="M538.35,605.69v-1.3h1.14v1.3Zm1.14,8h-1.14v-6.8h1.14Z"/><path class="cls-1" d="M541.12,613.72v-9.33h1.14v3.39h0a2.29,2.29,0,0,1,2-1c1.81,0,2.84,1.48,2.84,3.39,0,1.62-.68,3.8-3,3.8a2,2,0,0,1-1.88-1h0v.85Zm2.92-6c-1.65,0-1.83,1.79-1.83,2.89,0,1.81,1.13,2.29,1.86,2.29,1.25,0,1.83-1.13,1.83-2.63C545.9,609.43,545.81,607.75,544,607.75Z"/><path class="cls-1" d="M552.61,613.72v-1l0,0a2.24,2.24,0,0,1-2.15,1.21,2,2,0,0,1-2.21-2.11v-4.89h1.14v4.51c0,1.12.57,1.5,1.31,1.5,1.45,0,1.88-1.28,1.88-2.26v-3.75h1.14v6.8Z"/><path class="cls-1" d="M559.27,608.86c0-.43-.17-1.15-1.62-1.15-.35,0-1.35.12-1.35,1,0,.56.35.69,1.24.91l1.14.28c1.42.35,1.91.87,1.91,1.8,0,1.4-1.15,2.25-2.69,2.25-2.69,0-2.88-1.56-2.92-2.38h1.1c0,.53.2,1.39,1.81,1.39.82,0,1.56-.33,1.56-1.08,0-.55-.38-.73-1.35-1l-1.33-.32c-.95-.24-1.57-.72-1.57-1.65,0-1.5,1.23-2.17,2.57-2.17,2.43,0,2.6,1.79,2.6,2.13Z"/><path class="cls-1" d="M566.94,607.87v5.85h-1.15v-5.85h-.93v-1h.93v-1.17c0-1,.65-1.49,1.77-1.49l.52,0v1l-.47,0c-.49,0-.67.25-.67.8v.84h1.14v1Z"/><path class="cls-1" d="M574.52,611.59a3,3,0,0,1-1.21,1.86,2.92,2.92,0,0,1-1.85.47c-1.91,0-3-1.45-3-3.41s1-3.78,3.26-3.78c2,0,2.93,1.56,2.93,4h-5c0,1.42.66,2.24,2,2.24a1.72,1.72,0,0,0,1.75-1.34Zm-1.1-1.81c-.06-1-.5-2-1.89-2a2,2,0,0,0-1.89,2Z"/><path class="cls-1" d="M577.27,613.72h-1.14v-6.8h1.08v1.13h0a2.22,2.22,0,0,1,1.91-1.32.8.8,0,0,1,.3,0V608H579a1.73,1.73,0,0,0-1.74,1.82Z"/><path class="cls-1" d="M580.63,606.92h1.07v1h0a2.39,2.39,0,0,1,2-1.15,1.83,1.83,0,0,1,1.81,1.1,2.48,2.48,0,0,1,2.08-1.1,2,2,0,0,1,2.11,2.28v4.71h-1.15v-4.39c0-.94-.28-1.58-1.26-1.58a1.73,1.73,0,0,0-1.6,1.82v4.15h-1.14V609c0-.57-.22-1.26-1.07-1.26-.65,0-1.79.42-1.79,2.27v3.7h-1.14Z"/><path class="cls-1" d="M597.23,611.59a3,3,0,0,1-1.21,1.86,2.92,2.92,0,0,1-1.85.47c-1.91,0-3-1.45-3-3.41s1-3.78,3.26-3.78c2,0,2.93,1.56,2.93,4h-5c0,1.42.66,2.24,2,2.24a1.72,1.72,0,0,0,1.75-1.34Zm-1.1-1.81c-.06-1-.5-2-1.89-2a2,2,0,0,0-1.89,2Z"/><path class="cls-1" d="M604.22,613.72h-1.14v-4.18c0-1.19-.34-1.79-1.46-1.79-.65,0-1.79.42-1.79,2.27v3.7h-1.15v-6.8h1.08v1h0a2.45,2.45,0,0,1,2.05-1.15,2.15,2.15,0,0,1,2.38,2.36Z"/><path class="cls-1" d="M607.31,607.87v4.42c0,.53.46.53.69.53h.41v.9c-.42,0-.75.09-.86.09-1.13,0-1.38-.64-1.38-1.45v-4.49h-.92v-1h.92V605h1.14v1.9h1.1v1Z"/><path class="cls-1" d="M614,613.72v-1l0,0a2.24,2.24,0,0,1-2.16,1.21,2,2,0,0,1-2.21-2.11v-4.89h1.15v4.51c0,1.12.57,1.5,1.31,1.5,1.44,0,1.87-1.28,1.87-2.26v-3.75H615v6.8Z"/><path class="cls-1" d="M616.75,606.92h1.08v1h0a2.37,2.37,0,0,1,2-1.15,1.86,1.86,0,0,1,1.81,1.1,2.47,2.47,0,0,1,2.08-1.1,2,2,0,0,1,2.1,2.28v4.71h-1.14v-4.39c0-.94-.29-1.58-1.26-1.58a1.73,1.73,0,0,0-1.6,1.82v4.15h-1.14V609c0-.57-.23-1.26-1.07-1.26-.65,0-1.79.42-1.79,2.27v3.7h-1.15Z"/><path class="cls-1" d="M629.22,613.72h-1.35v-1.38h1.35Z"/><circle class="cls-2" cx="339" cy="601" r="45"/><path class="cls-1" d="M339,560a41,41,0,0,1,41,41h0a41,41,0,0,1-82,0h0a41,41,0,0,1,41-41m0-8a49,49,0,1,0,49,49,49.05,49.05,0,0,0-49-49Z"/><path class="cls-3" d="M325.13,593.38h27.92v16.75H325.13Zm34.9,8.38a4.19,4.19,0,0,0,4.19,4.18v8.38a4.18,4.18,0,0,1-4.19,4.19H318.15a4.18,4.18,0,0,1-4.19-4.19v-8.38a4.19,4.19,0,1,0,0-8.37v-8.38a4.19,4.19,0,0,1,4.19-4.19H360a4.19,4.19,0,0,1,4.19,4.19v8.38A4.19,4.19,0,0,0,360,601.76Zm-4.18-9.08a2.09,2.09,0,0,0-2.1-2.09H324.43a2.08,2.08,0,0,0-2.09,2.09v18.15a2.09,2.09,0,0,0,2.09,2.1h29.32a2.1,2.1,0,0,0,2.1-2.1Z"/></g></svg>